<?xml version="1.0" standalone="no"?>
<!DOCTYPE svg PUBLIC "-//W3C//DTD SVG 1.1//EN" "http://www.w3.org/Graphics/SVG/1.1/DTD/svg11.dtd" >
<svg xmlns="http://www.w3.org/2000/svg" xmlns:xlink="http://www.w3.org/1999/xlink" version="1.1">
<metadata>
Created by FontForge 20230101 at Thu Jun 15 13:41:23 2023
 By Unknown
MAREGY (c) SalamahType. 2023.  All rights reserved.
</metadata>
<defs>
<font id="MAREGY-Regular" horiz-adv-x="630" >
  <font-face 
    font-family="MAREGY"
    font-weight="400"
    font-stretch="normal"
    units-per-em="1000"
    panose-1="0 0 0 0 0 0 0 0 0 0"
    ascent="800"
    descent="-200"
    x-height="533"
    cap-height="701"
    bbox="-107 -250 1418 855"
    underline-thickness="50"
    underline-position="-125"
    unicode-range="U+000D-FB03"
  />
<missing-glyph horiz-adv-x="500" 
 />
    <glyph glyph-name="uniE00F" unicode="ft" horiz-adv-x="503" 
d="M67 536h69v10q0 98 50.5 150.5t129.5 52.5q46 0 46 -17q0 -23 -88 -23q-42 0 -59.5 -9.5t-26.5 -43.5t-9 -111v-9h172v85h43v-85h69l-12 -15h-57v-521h-43v521h-172v-521h-43v521h-81z" />
    <glyph glyph-name="f_f" unicode="ff" horiz-adv-x="637" 
d="M179 0h-43v521h-81l12 15h69v10q0 98 50.5 150.5t129.5 52.5q46 0 46 -17q0 -23 -88 -23q-42 0 -59.5 -9.5t-26.5 -43.5t-9 -111v-9h232v10q0 98 50.5 150.5t129.5 52.5q46 0 46 -17q0 -23 -88 -23q-42 0 -59.5 -9.5t-26.5 -43.5t-9 -111v-9h120l-12 -15h-108v-521h-43
v521h-232v-521z" />
    <glyph glyph-name="fi" unicode="fi" horiz-adv-x="485" 
d="M179 0h-43v521h-81l13 15h68v10q0 98 50.5 150.5t129.5 52.5q46 0 46 -17q0 -23 -88 -23q-42 0 -59.5 -9.5t-26.5 -43.5t-9 -111v-9h215v-536h-42v521h-173v-521zM336 638q0 14 9 23t25 9q15 0 24.5 -9t9.5 -23q0 -16 -9.5 -25t-24.5 -9q-34 0 -34 34z" />
    <glyph glyph-name="fl" unicode="fl" horiz-adv-x="448" 
d="M179 0h-43v521h-81l12 15h69v10q0 98 50.5 150.5t129.5 52.5q46 0 46 -17q0 -23 -88 -23q-42 0 -59.5 -9.5t-26.5 -43.5t-9 -111v-9h90l-12 -15h-78v-521zM393 0h-42v700h42v-700z" />
    <glyph glyph-name="f_f_i" unicode="ffi" horiz-adv-x="694" 
d="M179 0h-43v521h-81l12 15h69v10q0 98 50.5 150.5t129.5 52.5q46 0 46 -17q0 -23 -88 -23q-42 0 -59.5 -9.5t-26.5 -43.5t-9 -111v-9h192v10q0 98 50.5 150.5t129.5 52.5q46 0 46 -17q0 -23 -88 -23q-42 0 -59.5 -9.5t-26.5 -43.5t-9 -111v-9h215v-536h-42v521h-173v-521
h-43v521h-192v-521zM571 638q0 14 9 23t25 9q15 0 24.5 -9t9.5 -23q0 -16 -9.5 -25t-24.5 -9q-34 0 -34 34z" />
    <glyph glyph-name=".notdef" horiz-adv-x="500" 
 />
    <glyph glyph-name="uni0000" horiz-adv-x="0" 
 />
    <glyph glyph-name="uni000D" unicode="&#xd;" horiz-adv-x="250" 
 />
    <glyph glyph-name="space" unicode=" " horiz-adv-x="260" 
 />
    <glyph glyph-name="exclam" unicode="!" horiz-adv-x="174" 
d="M92 182h-10q0 91 0.5 169.5t-8.5 168.5t-29 168q24 30 44 30q21 0 40 -30q-20 -78 -29.5 -168t-8.5 -168.5t1 -169.5zM45 39q0 20 12 31.5t30 11.5q19 0 31.5 -11.5t12.5 -31.5q0 -19 -13 -31.5t-31 -12.5t-30 12t-12 32z" />
    <glyph glyph-name="quotedbl" unicode="&#x22;" horiz-adv-x="231" 
d="M94 631q-1 -3 -9 -7t-18 -4q-17 0 -26.5 11.5t-9.5 27.5q0 18 11 29.5t29 11.5q19 0 29.5 -13.5t10.5 -36.5q0 -31 -18 -62.5t-39 -44.5q-5 -2 -6.5 1t2.5 7q35 25 44 80zM180 631q-1 -3 -9 -7t-18 -4q-17 0 -26.5 11.5t-9.5 27.5q0 18 11 29.5t29 11.5q19 0 29.5 -13.5
t10.5 -36.5q0 -31 -18 -62.5t-39 -44.5q-5 -2 -6.5 1t2.5 7q35 25 44 80z" />
    <glyph glyph-name="numbersign" unicode="#" horiz-adv-x="581" 
d="M305 -1l52 260h-205l-52 -260h-21l53 260h-117v20h121l20 101h-121v20h125l41 201h20l-40 -201h205l40 201h21l-41 -201h120v-20h-124l-20 -101h124v-20h-128l-53 -260h-20zM156 279h205l21 101h-205z" />
    <glyph glyph-name="dollar" unicode="$" horiz-adv-x="496" 
d="M206 -55v49q-36 6 -72 22.5t-49.5 27t-44.5 34.5v104h15q32 -146 151 -172v382q-63 36 -97 74t-34 91q0 54 35.5 92t95.5 50v52h19v-49q22 2 33 2q109 0 181 -58v-104h-15q-15 71 -50.5 109t-108.5 38q-20 0 -40 -3v-253q18 -11 55.5 -31.5t60 -33.5t52.5 -35.5t46.5 -43
t29 -49.5t12.5 -62q0 -83 -65 -135.5t-163 -52.5q-19 0 -28 1v-46h-19zM206 445v237q-43 -12 -68 -40.5t-25 -67.5q0 -69 93 -129zM251 5q80 0 133 45t53 115q0 18 -3.5 34.5t-12.5 31.5t-16 26.5t-24 25.5t-26 21.5t-31.5 21t-31 18.5t-34.5 19t-33 18v-375q8 -1 26 -1z
" />
    <glyph glyph-name="percent" unicode="%" horiz-adv-x="613" 
d="M37 -1l536 702h26l-535 -702h-27zM61 553q0 67 41.5 107t99.5 40q57 0 99.5 -40t42.5 -107t-42.5 -107t-99.5 -40q-58 0 -99.5 40t-41.5 107zM91 551q0 -61 31 -98t80 -37q48 0 80 38.5t32 100.5q0 60 -32 97.5t-80 37.5q-49 0 -80 -38.5t-31 -100.5zM316 147
q0 67 41.5 107t99.5 40q57 0 99.5 -40t42.5 -107t-42.5 -107t-99.5 -40q-58 0 -99.5 40t-41.5 107zM346 145q0 -61 31 -98t80 -37q48 0 80 38.5t32 100.5q0 60 -32 97.5t-80 37.5q-49 0 -80 -38.5t-31 -100.5z" />
    <glyph glyph-name="ampersand" unicode="&#x26;" horiz-adv-x="629" 
d="M208 -6q-83 0 -138 52.5t-55 145.5q0 130 110 190q-16 58 -16 115q0 92 47 148.5t126 56.5q62 0 102 -33.5t40 -84.5q0 -59 -60.5 -105.5t-187.5 -89.5h-3q27 -90 81 -174.5t120 -134.5q57 62 57 137q0 50 -26 79t-65 31v8h152q11 -60 -18.5 -135t-86.5 -130
q60 -41 119 -41q40 0 71 18.5t34 55.5h2q2 -40 -36.5 -71.5t-96.5 -31.5q-63 0 -128 42q-68 -48 -144 -48zM168 401q118 42 165 84t47 100q0 55 -31 80t-72 25q-57 0 -92.5 -48t-35.5 -123q0 -52 19 -118zM340 50q-70 50 -126 136t-84 181q-71 -48 -71 -156
q0 -93 46.5 -147.5t117.5 -54.5q60 0 117 41z" />
    <glyph glyph-name="quotesingle" unicode="'" horiz-adv-x="129" 
d="M94 631q-1 -3 -9 -7t-18 -4q-17 0 -26.5 11.5t-9.5 27.5q0 18 11 29.5t29 11.5q19 0 29.5 -13.5t10.5 -36.5q0 -31 -18 -62.5t-39 -44.5q-5 -2 -6.5 1t2.5 7q35 25 44 80z" />
    <glyph glyph-name="parenleft" unicode="(" horiz-adv-x="171" 
d="M156 -21h-12q-129 180 -129 371q0 198 127 371h13q-90 -183 -90 -368q0 -111 25 -209t66 -165z" />
    <glyph glyph-name="parenright" unicode=")" horiz-adv-x="171" 
d="M15 -21q41 67 66 165t25 209q0 185 -90 368h13q127 -173 127 -371q0 -191 -129 -371h-12z" />
    <glyph glyph-name="asterisk" unicode="*" horiz-adv-x="329" 
d="M64 529l-5 9l101 58l-101 57l5 9l101 -58v96h10v-96l101 58l5 -9l-101 -57l101 -58l-5 -9l-101 58v-96h-10v96z" />
    <glyph glyph-name="plus" unicode="+" horiz-adv-x="476" 
d="M228 22v241h-212v20h212v166h20v-166h212v-20h-212v-241h-20z" />
    <glyph glyph-name="comma" unicode="," horiz-adv-x="148" 
d="M94 10q-1 -3 -9 -7t-18 -4q-17 0 -26.5 11.5t-9.5 27.5q0 18 11 29.5t29 11.5q19 0 29.5 -13.5t10.5 -36.5q0 -31 -18 -62.5t-39 -44.5q-5 -2 -6.5 1t2.5 7q35 25 44 80z" />
    <glyph glyph-name="hyphen" unicode="-" horiz-adv-x="394" 
d="M15 263v20h364v-20h-364z" />
    <glyph glyph-name="period" unicode="." horiz-adv-x="140" 
d="M34 37q0 17 10 26.5t25 9.5q16 0 26.5 -9.5t10.5 -26.5q0 -16 -11 -26.5t-26 -10.5t-25 10t-10 27z" />
    <glyph glyph-name="slash" unicode="/" horiz-adv-x="531" 
d="M10 -57l488 786h23l-489 -786h-22z" />
    <glyph glyph-name="zero" unicode="0" horiz-adv-x="575" 
d="M0 350q0 159 79.5 256.5t208.5 97.5t208 -97t79 -256q0 -160 -79 -258t-208 -98t-208.5 97.5t-79.5 257.5zM45 350q0 -157 66 -251t176 -94t176.5 94.5t66.5 251.5q0 156 -66.5 249.5t-176.5 93.5t-176 -94t-66 -250z" />
    <glyph glyph-name="one" unicode="1" horiz-adv-x="201" 
d="M133 0h-42v701h42v-701z" />
    <glyph glyph-name="two" unicode="2" horiz-adv-x="387" 
d="M210 704q80 0 126 -48.5t44 -131.5q-3 -161 -180 -326l-167 -155h337v-43h-360v40l159 161q69 70 110.5 147t45.5 150q4 80 -37 131.5t-105 51.5q-57 0 -102.5 -37.5t-66.5 -73.5l-11 7q82 127 207 127z" />
    <glyph glyph-name="three" unicode="3" horiz-adv-x="450" 
d="M199 19q82 0 137.5 55.5t55.5 161.5q0 107 -56 165t-139 58q-38 0 -78 -14v5l241 207h-303v43h330v-39l-226 -195q29 10 65 10q84 0 147.5 -58.5t63.5 -166.5q0 -109 -65 -185t-166 -76q-52 0 -91.5 22t-58.5 53.5t-27.5 58.5t-8.5 45l7 6q0 -18 9 -41.5t27 -50.5
t54 -45.5t82 -18.5z" />
    <glyph glyph-name="four" unicode="4" horiz-adv-x="475" 
d="M406 233v-233h-44v233h-342v30l373 437h13v-427h42l-10 -40h-32zM362 639l-312 -366h312v366z" />
    <glyph glyph-name="five" unicode="5" horiz-adv-x="454" 
d="M10 169l7 6q38 -156 173 -156q81 0 136.5 55t55.5 161q0 100 -50 162.5t-129 61.5q-52 -1 -97 -26t-68 -50h-10l51 317h300v-44h-291l-41 -251q77 72 176 72q89 0 146 -65t57 -176q0 -114 -61.5 -180t-158.5 -66q-45 0 -80.5 16t-55 36t-34 49t-19 44.5t-7.5 33.5z" />
    <glyph glyph-name="six" unicode="6" horiz-adv-x="449" 
d="M348 705v-5q-39 -12 -80.5 -37.5t-85.5 -68t-76 -110.5t-41 -150q22 49 66 80.5t105 31.5q86 0 140.5 -62t54.5 -159q0 -100 -57.5 -163t-147.5 -63q-96 0 -152.5 74.5t-56.5 202.5q0 82 24 153t60.5 118t82.5 82.5t87 53t77 22.5zM62 290q-4 -125 44 -202.5t128 -77.5
q70 0 112 58.5t42 155.5q0 95 -41.5 149.5t-114.5 54.5q-64 0 -110.5 -39.5t-59.5 -98.5z" />
    <glyph glyph-name="seven" unicode="7" horiz-adv-x="370" 
d="M327 657h-287v43h310v-39q-103 -100 -154 -252t-51 -409h-46q0 231 61.5 400.5t166.5 256.5z" />
    <glyph glyph-name="eight" unicode="8" horiz-adv-x="465" 
d="M198 383q-69 39 -106 76.5t-37 93.5q0 65 50.5 108.5t128.5 43.5q75 0 127 -40.5t52 -99.5q0 -92 -134 -180q38 -22 62.5 -39t51 -43t39.5 -58t13 -71q0 -80 -55.5 -127.5t-149.5 -47.5q-97 0 -158.5 48.5t-61.5 125.5q0 66 48 122.5t130 87.5zM266 393q104 75 104 170
q0 56 -40 93.5t-99 37.5q-58 0 -96 -35.5t-38 -88.5q0 -29 11 -53t39.5 -47.5t45.5 -34.5t61 -35q8 -5 12 -7zM403 161q0 27 -6.5 50.5t-23.5 44t-30 34.5t-42.5 32.5t-42 26t-47.5 26.5q-60 -25 -103.5 -74.5t-43.5 -119.5q0 -75 51 -123.5t129 -48.5q71 0 115 42t44 110z
" />
    <glyph glyph-name="nine" unicode="9" horiz-adv-x="449" 
d="M101 -1v5q39 12 80.5 37.5t85.5 68t76 110.5t41 150q-22 -49 -66 -80.5t-105 -31.5q-85 0 -139 62t-54 159t55.5 161.5t145.5 64.5q93 0 150.5 -72t57.5 -205q0 -82 -24 -153t-60 -118t-81.5 -82.5t-86.5 -53t-76 -22.5zM387 414q4 125 -43.5 202.5t-128.5 77.5
q-70 0 -112 -59t-42 -155q0 -95 41.5 -149.5t114.5 -54.5q64 0 110.5 39.5t59.5 98.5z" />
    <glyph glyph-name="colon" unicode=":" horiz-adv-x="140" 
d="M33 390q0 17 10 26.5t25 9.5q16 0 26.5 -9.5t10.5 -26.5q0 -16 -11 -26.5t-26 -10.5t-25 10t-10 27zM33 37q0 17 10 26.5t25 9.5q16 0 26.5 -9.5t10.5 -26.5q0 -16 -11 -26.5t-26 -10.5t-25 10t-10 27z" />
    <glyph glyph-name="semicolon" unicode=";" horiz-adv-x="140" 
d="M33 390q0 17 10 26.5t25 9.5q16 0 26.5 -9.5t10.5 -26.5q0 -16 -11 -26.5t-26 -10.5t-25 10t-10 27zM91 -3h-5q-26 0 -42.5 11.5t-16.5 33.5q0 19 11.5 32t31.5 13q21 0 33 -15.5t12 -40.5q0 -32 -18 -69t-42 -58q-6 0 -9 5q45 45 45 88z" />
    <glyph glyph-name="less" unicode="&#x3c;" horiz-adv-x="285" 
d="M219 135l-176 153v3l176 155v-16l-139 -140l139 -138v-17z" />
    <glyph glyph-name="equal" unicode="=" horiz-adv-x="405" 
d="M15 355v20h375v-20h-375zM15 256v20h375v-20h-375z" />
    <glyph glyph-name="greater" unicode="&#x3e;" horiz-adv-x="285" 
d="M43 135v17l139 138l-139 140v16l176 -155v-3z" />
    <glyph glyph-name="question" unicode="?" horiz-adv-x="445" 
d="M344 542q0 55 -36 98t-96 43q-83 0 -155 -89l-7 6q83 106 182 106q68 0 110.5 -43.5t42.5 -107.5q0 -41 -19.5 -77t-46.5 -65.5t-54.5 -61t-47 -75t-19.5 -94.5h-10q0 53 16 98.5t39 76.5t46 59.5t39 60.5t16 65zM151 44q0 20 12 31.5t30 11.5q19 0 31.5 -11.5
t12.5 -31.5q0 -19 -13 -31.5t-31 -12.5t-30 12t-12 32z" />
    <glyph glyph-name="at" unicode="@" horiz-adv-x="689" 
d="M464 444l13 60h30l-61 -281q-27 -127 38 -125q55 2 104 81.5t49 196.5q0 129 -65 205t-175 76q-94 0 -178.5 -54t-136 -146.5t-51.5 -197.5q0 -73 24 -134.5t80 -103t135 -41.5q91 0 154 44l-2 -13q-64 -42 -153 -42q-115 0 -184.5 79t-68.5 208q1 168 113 289.5
t266 121.5q117 0 186 -76t69 -206q0 -117 -51.5 -207.5t-115.5 -90.5q-39 0 -58.5 35.5t-10.5 87.5q-16 -29 -26 -45t-28.5 -38t-40 -32.5t-47.5 -10.5q-52 0 -86 44t-34 120q0 106 62 188.5t142 82.5q42 0 71.5 -23t36.5 -52zM431 289l26 122q3 38 -23.5 68t-69.5 30
q-72 0 -128 -80.5t-56 -184.5q0 -69 27 -110t67 -41q52 0 96 63t61 133z" />
    <glyph glyph-name="A" unicode="A" 
d="M559 0l-119 295h-280l-119 -295h-16l282 700h16l282 -700h-46zM166 310h268l-134 332z" />
    <glyph glyph-name="B" unicode="B" horiz-adv-x="578" 
d="M283 0h-228v700h237q53 0 97 -13t74 -45t30 -79q0 -51 -33.5 -87t-86.5 -53q61 -4 113 -56.5t52 -140.5q0 -104 -75 -165t-180 -61zM98 685v-253h204q64 0 103.5 37.5t39.5 96.5q0 57 -41.5 88t-111.5 31h-194zM98 417v-402h189q86 0 146 58t60 148q0 83 -51.5 139.5
t-137.5 56.5h-206z" />
    <glyph glyph-name="C" unicode="C" horiz-adv-x="644" 
d="M392 5q89 0 142 40t70 130h15v-107q-97 -78 -233 -78q-166 0 -256 94t-90 248q0 168 101.5 270t260.5 102q128 0 201 -58v-104h-15q-8 37 -17.5 60t-28 45t-51.5 32t-81 10q-82 0 -146 -30.5t-102 -82t-57.5 -114t-19.5 -132.5q0 -145 81 -235t226 -90z" />
    <glyph glyph-name="D" unicode="D" horiz-adv-x="672" 
d="M311 0h-256v700h256q65 0 120.5 -18.5t101.5 -57.5t72.5 -106t26.5 -157q0 -174 -92 -267.5t-229 -93.5zM96 685v-670h210q124 0 201.5 91t77.5 257q0 165 -77.5 243.5t-203.5 78.5h-208z" />
    <glyph glyph-name="E" unicode="E" horiz-adv-x="475" 
d="M450 0h-395v700h395v-15h-354v-233h273v-15h-273v-422h354v-15z" />
    <glyph glyph-name="F" unicode="F" horiz-adv-x="485" 
d="M96 0h-41v700h395v-15h-354v-253h273v-15h-273v-417z" />
    <glyph glyph-name="G" unicode="G" horiz-adv-x="674" 
d="M410 5q129 0 168 82v225h41v-254q-83 -68 -212 -68q-167 0 -267 98t-100 247q0 157 108 263t266 106q126 0 199 -58v-124h-15q-15 88 -49 127.5t-120 39.5q-151 0 -247.5 -108.5t-96.5 -251.5q0 -137 91 -230.5t234 -93.5z" />
    <glyph glyph-name="H" unicode="H" horiz-adv-x="639" 
d="M97 0h-42v701h42v-274q93 5 230.5 -31.5t214.5 -38.5v344h42v-701h-42v341q-77 2 -214.5 38.5t-230.5 31.5v-411z" />
    <glyph glyph-name="I" unicode="I" horiz-adv-x="152" 
d="M55 0v701h42v-701h-42z" />
    <glyph glyph-name="J" unicode="J" horiz-adv-x="272" 
d="M55 -95v15q38 0 63 14t36.5 40t15.5 51t4 60l1 615h42v-609q0 -79 -39 -132.5t-123 -53.5z" />
    <glyph glyph-name="K" unicode="K" horiz-adv-x="596" 
d="M571 0h-60l-355 367l-59 -60v-307h-42v701h42v-372l360 371h21l-293 -303z" />
    <glyph glyph-name="L" unicode="L" horiz-adv-x="505" 
d="M96 700v-685h354v-15h-395v700h41z" />
    <glyph glyph-name="M" unicode="M" horiz-adv-x="714" 
d="M101 700l260 -614l258 614h40v-700h-42v657l-264 -627h-16l-266 632v-662h-15v698l-1 2h46z" />
    <glyph glyph-name="N" unicode="N" horiz-adv-x="576" 
d="M73 0h-18v701h16l464 -626v625h16v-700h-17l-461 622v-622z" />
    <glyph glyph-name="O" unicode="O" horiz-adv-x="795" 
d="M399 -3q-163 0 -261 95.5t-98 253.5q0 157 97.5 258.5t258.5 101.5q162 0 260.5 -102.5t98.5 -259.5t-97 -252t-259 -95zM399 13q141 0 225 90.5t84 241.5t-85 248t-227 97q-140 0 -224.5 -97t-84.5 -247q0 -151 85 -242t227 -91z" />
    <glyph glyph-name="P" unicode="P" horiz-adv-x="543" 
d="M309 297h-211v-297h-43v700h242q85 0 145.5 -48t60.5 -143q0 -89 -54 -150.5t-140 -61.5zM98 685v-373h210q65 0 106 55t41 140t-43 131.5t-114 46.5h-200z" />
    <glyph glyph-name="Q" unicode="Q" horiz-adv-x="775" 
d="M389 -3q-163 0 -261 95.5t-98 253.5q0 157 97.5 258.5t258.5 101.5q162 0 260.5 -102.5t98.5 -259.5q0 -122 -59.5 -208t-164.5 -120q36 -25 90.5 -68t85.5 -67t66 -40t57 -9v-16q-12 -4 -28 -4q-31 0 -72.5 20t-72.5 42.5t-86.5 66.5t-83.5 64q-45 -8 -88 -8zM162 104v1
q47 18 93 18q106 0 245 -93q93 32 145.5 115t52.5 200q0 151 -85 248t-227 97q-140 0 -224.5 -97t-84.5 -247q0 -151 85 -242zM389 13q36 0 69 6q-126 88 -216 88q-37 0 -70 -13q84 -81 217 -81z" />
    <glyph glyph-name="R" unicode="R" horiz-adv-x="589" 
d="M564 6v-6h-54q-19 4 -46 19.5t-41 29.5l-203 208h-122v-257h-43v700h242q85 0 145.5 -52t60.5 -153q0 -97 -54 -167.5t-140 -70.5h-34l202 -206q15 -15 41 -29.5t46 -15.5zM98 685v-413h210q64 0 105.5 64.5t41.5 157.5q0 92 -42.5 141.5t-114.5 49.5h-200z" />
    <glyph glyph-name="S" unicode="S" horiz-adv-x="521" 
d="M251 5q80 0 133 45t53 115q0 55 -37.5 98t-90.5 72t-106 57.5t-90.5 70t-37.5 94.5q0 66 51 106.5t132 40.5q109 0 181 -58v-104h-15q-15 71 -50.5 109t-108.5 38q-68 0 -110 -31.5t-42 -83.5q0 -47 38 -85t92 -67t108 -60t92 -78t38 -106q0 -83 -65 -135.5t-163 -52.5
q-38 0 -70.5 7.5t-61.5 24.5t-42 26t-39 30v104h15q16 -74 63.5 -125.5t132.5 -51.5z" />
    <glyph glyph-name="T" unicode="T" horiz-adv-x="587" 
d="M562 685h-248v-685h-41v685h-248v15h537v-15z" />
    <glyph glyph-name="U" unicode="U" horiz-adv-x="600" 
d="M55 700h41v-462q0 -98 54 -159.5t153 -61.5q103 0 165 64t62 163v457h15v-458q0 -113 -63 -181.5t-181 -68.5q-114 0 -180 64.5t-66 174.5v468z" />
    <glyph glyph-name="V" unicode="V" 
d="M71 700l259 -642l259 642h16l-282 -700h-16l-282 700h46z" />
    <glyph glyph-name="W" unicode="W" horiz-adv-x="858" 
d="M71 700l228 -638l122 338l-108 300h46l85 -237l85 237h16l-93 -259l135 -379l230 638h16l-252 -700h-16l-136 378l-136 -378h-16l-252 700h46z" />
    <glyph glyph-name="X" unicode="X" horiz-adv-x="484" 
d="M95 700l160 -308l178 308h18l-187 -325l195 -375h-48l-174 336l-194 -336h-18l204 353l-180 347h46z" />
    <glyph glyph-name="Y" unicode="Y" horiz-adv-x="515" 
d="M74 700l190 -308l208 308h18l-219 -328v-372h-43v370l-203 330h49z" />
    <glyph glyph-name="Z" unicode="Z" horiz-adv-x="451" 
d="M25 0v13l351 672h-350v15h400v-13l-351 -672h350v-15h-400z" />
    <glyph glyph-name="bracketleft" unicode="[" horiz-adv-x="126" 
d="M15 -31v762h96v-15h-56v-731h56v-16h-96z" />
    <glyph glyph-name="backslash" unicode="\" horiz-adv-x="468" 
d="M453 -57h-22l-399 786h23z" />
    <glyph glyph-name="bracketright" unicode="]" horiz-adv-x="126" 
d="M111 -31h-96v16h56v731h-56v15h96v-762z" />
    <glyph glyph-name="asciicircum" unicode="^" horiz-adv-x="472" 
d="M101 559l133 141h3l135 -141h-16l-120 104l-118 -104h-17z" />
    <glyph glyph-name="underscore" unicode="_" horiz-adv-x="464" 
d="M15 0v30h434v-30h-434z" />
    <glyph glyph-name="grave" unicode="`" horiz-adv-x="134" 
d="M74 599l-62 101h40l27 -101h-5z" />
    <glyph glyph-name="a" unicode="a" horiz-adv-x="584" 
d="M488 536h41v-536h-41v143q-24 -65 -81 -109t-133 -44q-100 0 -167 76t-67 190q0 123 76 206.5t181 83.5q72 0 120.5 -40.5t70.5 -96.5v127zM488 216v133q0 19 -12.5 47.5t-34.5 58.5t-59.5 51t-80.5 21q-88 0 -152.5 -78t-64.5 -193q0 -106 56.5 -175t140.5 -69
q83 0 145 65t62 139z" />
    <glyph glyph-name="b" unicode="b" horiz-adv-x="565" 
d="M55 0v700h44v-327q27 69 84.5 116t139.5 47q95 0 148.5 -63t53.5 -157q0 -58 -21.5 -113t-63.5 -101t-113 -74t-160 -28h-112zM99 15h58q83 0 148 26.5t102 70.5t56 94t19 103q0 87 -47.5 144.5t-127.5 57.5q-81 0 -139 -58.5t-69 -133.5v-304z" />
    <glyph glyph-name="c" unicode="c" horiz-adv-x="572" 
d="M322 521q-104 0 -170.5 -70t-66.5 -180t65.5 -179.5t159.5 -69.5q64 0 121 33t85 83l16 -5q-25 -57 -88.5 -96.5t-145.5 -39.5q-112 0 -185 75.5t-73 194.5q0 121 76.5 195t201.5 74q122 0 195 -58v-104h-15q-29 147 -176 147z" />
    <glyph glyph-name="d" unicode="d" horiz-adv-x="589" 
d="M491 501v199h43v-700h-43v151q-39 -70 -107 -113t-143 -43q-89 0 -145 62t-56 163q0 132 93 218.5t230 86.5q69 0 128 -24zM491 186v299q-48 22 -113 22q-129 0 -212.5 -75.5t-83.5 -197.5q0 -93 50.5 -149t132.5 -56q72 0 134 43t92 114z" />
    <glyph glyph-name="e" unicode="e" horiz-adv-x="572" 
d="M85 274q0 -112 65 -182t160 -70q64 0 121 33t85 83l16 -5q-25 -57 -88.5 -96.5t-145.5 -39.5q-113 0 -185.5 76.5t-72.5 197.5q0 119 71 192t185 73q96 0 155 -52.5t59 -137.5v-12h-419q-6 -28 -6 -60zM94 349h364q-2 76 -48 124t-118 48t-125.5 -47.5t-72.5 -124.5z" />
    <glyph glyph-name="f" unicode="f" horiz-adv-x="362" 
d="M179 0h-43v521h-81l12 15h69v10q0 98 50.5 150.5t129.5 52.5q46 0 46 -17q0 -23 -88 -23q-42 0 -59.5 -9.5t-26.5 -43.5t-9 -111v-9h90l-12 -15h-78v-521z" />
    <glyph glyph-name="g" unicode="g" horiz-adv-x="668" 
d="M130 322q0 90 62.5 152t162.5 62h255v-15h-168q66 -25 105.5 -79t39.5 -119q0 -89 -63.5 -151t-164.5 -62q-85 0 -147 46q-65 -36 -65 -74q0 -16 15.5 -23t58.5 -12l196 -20q115 -12 163 -37t48 -73q0 -72 -86 -119t-219 -47q-115 0 -191.5 35t-76.5 84q0 70 174 130
l-13 1q-110 10 -110 59q0 51 93 107q-69 61 -69 155zM176 322q0 -84 51 -143t132 -59t132 59t51 143q0 85 -51 144.5t-132 59.5t-132 -59.5t-51 -144.5zM246 -2q-138 -61 -138 -132q0 -43 53.5 -71t154.5 -28q119 0 199.5 37.5t80.5 89.5q0 70 -175 87z" />
    <glyph glyph-name="h" unicode="h" horiz-adv-x="526" 
d="M97 0h-42v700h42v-335q10 26 24 50t38.5 54t62 48.5t80.5 18.5q76 0 122.5 -53.5t46.5 -139.5v-343h-43v334q0 85 -35.5 131t-98.5 46q-125 0 -197 -182v-329z" />
    <glyph glyph-name="i" unicode="i" horiz-adv-x="178" 
d="M55 638q0 14 9 23t25 9q15 0 24.5 -9t9.5 -23q0 -16 -9.5 -25t-24.5 -9q-34 0 -34 34zM106 0h-42v535h42v-535z" />
    <glyph glyph-name="j" unicode="j" horiz-adv-x="237" 
d="M114 638q0 14 9 23t25 9q15 0 24.5 -9t9.5 -23q0 -16 -9.5 -25t-24.5 -9q-34 0 -34 34zM123 93v442h42v-439q0 -79 -48.5 -132t-119.5 -53v10q56 0 91 43.5t35 128.5z" />
    <glyph glyph-name="k" unicode="k" horiz-adv-x="509" 
d="M97 0h-42v700h42v-428l308 271h21l-206 -186l264 -357h-48l-248 328l-91 -82v-246z" />
    <glyph glyph-name="l" unicode="l" horiz-adv-x="152" 
d="M97 0h-42v700h42v-700z" />
    <glyph glyph-name="m" unicode="m" horiz-adv-x="900" 
d="M97 0h-42v534h42v-169q10 26 24 50t38.5 54t62 48.5t80.5 18.5q71 0 116.5 -46.5t51.5 -123.5q11 26 26 50.5t40 54t61.5 47.5t79.5 18q75 0 121.5 -53.5t46.5 -139.5v-343h-43v334q0 85 -35.5 131t-98.5 46q-125 0 -197 -182v-329h-43v334q0 85 -35.5 131t-98.5 46
q-125 0 -197 -182v-329z" />
    <glyph glyph-name="n" unicode="n" horiz-adv-x="526" 
d="M97 0h-42v534h42v-169q10 26 24 50t38.5 54t62 48.5t80.5 18.5q76 0 122.5 -53.5t46.5 -139.5v-343h-43v334q0 85 -35.5 131t-98.5 46q-125 0 -197 -182v-329z" />
    <glyph glyph-name="o" unicode="o" horiz-adv-x="638" 
d="M40 263q0 115 77 192.5t203 77.5q125 0 201.5 -77.5t76.5 -192.5t-76.5 -192.5t-201.5 -77.5q-126 0 -203 77.5t-77 192.5zM82 263q0 -108 66 -181.5t172 -73.5q105 0 171 73.5t66 181.5t-66 181.5t-171 73.5q-106 0 -172 -73.5t-66 -181.5z" />
    <glyph glyph-name="p" unicode="p" horiz-adv-x="589" 
d="M98 30v-280h-43v781h43v-151q39 70 107 113t143 43q89 0 145 -62t56 -163q0 -132 -93 -218.5t-230 -86.5q-69 0 -128 24zM98 345v-299q48 -22 113 -22q129 0 212.5 75.5t83.5 197.5q0 93 -50.5 149t-132.5 56q-72 0 -134 -43t-92 -114z" />
    <glyph glyph-name="q" unicode="q" horiz-adv-x="565" 
d="M466 -250v402q-26 -63 -86.5 -107.5t-139.5 -44.5q-94 0 -147 63t-53 157q0 58 21.5 113t63.5 101t113 74t160 28h112v-786h-44zM466 521h-58q-84 0 -149 -26.5t-102.5 -70.5t-56.5 -94t-19 -102q0 -87 47 -144.5t127 -57.5q84 0 147.5 62t63.5 129v304z" />
    <glyph glyph-name="r" unicode="r" horiz-adv-x="340" 
d="M97 0h-42v534h42v-121q22 55 79 89t106 34q33 0 33 -19q0 -23 -43 -23q-61 0 -118 -37.5t-57 -99.5v-357z" />
    <glyph glyph-name="s" unicode="s" horiz-adv-x="449" 
d="M228 4q69 0 117 28.5t48 76.5q0 38 -34.5 68t-83.5 51.5t-98.5 44.5t-84 58t-34.5 80q0 54 44 89.5t117 35.5q105 0 178 -58v-104h-15q-29 147 -158 147q-58 0 -94.5 -27.5t-36.5 -69.5q0 -37 34 -67t82.5 -51.5t97.5 -44.5t83 -58.5t34 -81.5q0 -62 -55 -97t-140 -35
q-119 0 -191 58v104h15q29 -147 175 -147z" />
    <glyph glyph-name="t" unicode="t" horiz-adv-x="273" 
d="M121 521h-66v15h66v85h43v-85h69l-12 -15h-57v-521h-43v521z" />
    <glyph glyph-name="u" unicode="u" horiz-adv-x="466" 
d="M399 535h42v-534h-42v169q-10 -26 -24 -50t-38.5 -54t-62 -48.5t-80.5 -18.5q-76 0 -122.5 53.5t-46.5 139.5v343h43v-334q0 -85 35.5 -131t98.5 -46q125 0 197 182v329z" />
    <glyph glyph-name="v" unicode="v" horiz-adv-x="502" 
d="M477 536l-218 -536h-16l-218 536h45l196 -479l197 479h14z" />
    <glyph glyph-name="w" unicode="w" horiz-adv-x="821" 
d="M411 372l-152 -372h-16l-218 536h45l196 -479l137 333l-59 146h45l37 -90l37 90h14l-44 -108l152 -371l197 479h14l-218 -536h-16z" />
    <glyph glyph-name="x" unicode="x" horiz-adv-x="491" 
d="M102 536l158 -232l173 232h18l-182 -246l197 -290h-55l-175 259l-193 -259h-18l203 271l-179 265h53z" />
    <glyph glyph-name="y" unicode="y" horiz-adv-x="502" 
d="M157 -250h-17l103 251l-218 535h45l196 -478l196 478h15z" />
    <glyph glyph-name="z" unicode="z" horiz-adv-x="450" 
d="M25 5l329 513h-317v16h373v-5l-330 -513h319v-16h-374v5z" />
    <glyph glyph-name="braceleft" unicode="{" horiz-adv-x="217" 
d="M72 351q57 -26 60 -149q2 -116 14 -164.5t56 -56.5v-2q-115 5 -115 170q0 12 1 33.5t2 37t0 35.5t-5.5 34.5t-12 28.5t-22.5 22t-35 10v2q20 2 35 10t22.5 22t12 28.5t5.5 34.5t0 35.5t-2 37t-1 33.5q0 165 115 170v-2q-44 -8 -56 -56.5t-14 -166.5q-3 -121 -60 -147z
" />
    <glyph glyph-name="bar" unicode="|" horiz-adv-x="49" 
d="M15 -56v806h19v-806h-19z" />
    <glyph glyph-name="braceright" unicode="}" horiz-adv-x="217" 
d="M145 351q-57 26 -60 147q-2 118 -14 166.5t-56 56.5v2q115 -5 115 -170q0 -12 -1 -33.5t-2 -37t0 -35.5t5.5 -34.5t12 -28.5t22.5 -22t35 -10v-2q-20 -2 -35 -10t-22.5 -22t-12 -28.5t-5.5 -34.5t0 -35.5t2 -37t1 -33.5q0 -165 -115 -170v2q44 8 56 56.5t14 164.5
q3 123 60 149z" />
    <glyph glyph-name="asciitilde" unicode="~" horiz-adv-x="384" 
d="M31 266h-16q13 73 87 73q40 0 103 -33t98 -33q38 0 49 31h17q-13 -55 -74 -55q-39 0 -103.5 34t-100.5 34q-51 0 -60 -51z" />
    <glyph glyph-name="exclamdown" unicode="&#xa1;" horiz-adv-x="116" 
d="M15 674q0 20 12 32t30 12t31 -12.5t13 -31.5q0 -20 -12.5 -31.5t-31.5 -11.5q-18 0 -30 11.5t-12 31.5zM62 531q0 -91 -1 -169.5t8.5 -168.5t29.5 -168q-19 -30 -40 -30q-20 0 -44 30q20 78 29 168t8.5 168.5t-0.5 169.5h10z" />
    <glyph glyph-name="cent" unicode="&#xa2;" horiz-adv-x="543" 
d="M322 521q-104 0 -170.5 -70t-66.5 -180t65.5 -179.5t159.5 -69.5q64 0 121 33t85 83l16 -5q-25 -57 -88.5 -96.5t-145.5 -39.5h-7v-40h-19v41q-103 9 -167.5 83t-64.5 186q0 109 63 180.5t169 85.5v48h19v-46q9 1 27 1q122 0 195 -58v-104h-15q-29 147 -176 147z" />
    <glyph glyph-name="sterling" unicode="&#xa3;" horiz-adv-x="590" 
d="M338 712q62 0 101 -35t39 -91q0 -42 -21.5 -64t-51.5 -22q-17 0 -30 6v3q23 -4 43 10.5t20 59.5q0 53 -29 88t-74 35q-51 0 -84 -45t-33 -113v-182h219v-20h-219v-166q0 -56 -27 -93t-71 -43h382v-40h-432v40q61 1 84 34t23 96v172h-44v20h44v183q0 74 45 120.5t116 46.5
z" />
    <glyph glyph-name="currency" unicode="&#xa4;" horiz-adv-x="381" 
d="M180 443q65 0 108 -35l23 48h10l-25 -55q50 -47 50 -131t-52 -133l27 -58h-10l-25 51q-43 -34 -106 -34t-106 34l-25 -51h-10l27 58q-52 49 -52 133t50 131l-25 55h10l23 -48q43 35 108 35zM180 106q66 0 106 45t40 120q0 73 -40 117.5t-106 44.5t-106 -44.5t-40 -117.5
q0 -75 40 -120t106 -45z" />
    <glyph glyph-name="yen" unicode="&#xa5;" horiz-adv-x="413" 
d="M74 700l190 -308l208 308h18l-217 -325h141v-20h-143v-79h143v-20h-143v-256h-43v256h-189v20h189v79h-189v20h186l-200 325h49z" />
    <glyph glyph-name="brokenbar" unicode="&#xa6;" horiz-adv-x="50" 
d="M15 340v352h20v-352h-20zM15 -132v341h20v-341h-20z" />
    <glyph glyph-name="section" unicode="&#xa7;" horiz-adv-x="416" 
d="M205 4q69 0 117 28.5t48 76.5q0 38 -34.5 68t-83.5 51.5t-98.5 44.5t-84 57.5t-34.5 79.5t33 80q-33 36 -33 78q0 54 44 89.5t117 35.5q105 0 178 -58v-104h-15q-29 147 -158 147q-58 0 -94.5 -27.5t-36.5 -69.5q0 -37 34 -67t82.5 -51.5t97.5 -44.5t83 -59t34 -82
q0 -44 -31 -77q31 -36 31 -79q0 -62 -55 -97t-140 -35q-118 0 -191 58v104h15q29 -147 175 -147zM86 473q-16 -22 -16 -49q0 -35 32 -65t74 -48t95 -44t82 -51q17 22 17 50q0 36 -32 66t-73.5 48t-95.5 44t-83 49z" />
    <glyph glyph-name="dieresis" unicode="&#xa8;" horiz-adv-x="257" 
d="M35 650q0 17 10 26.5t25 9.5q16 0 26.5 -9.5t10.5 -26.5q0 -16 -11 -26.5t-26 -10.5t-25 10t-10 27zM118 650q0 17 10 26.5t25 9.5q16 0 26.5 -9.5t10.5 -26.5q0 -16 -11 -26.5t-26 -10.5t-25 10t-10 27z" />
    <glyph glyph-name="copyright" unicode="&#xa9;" horiz-adv-x="451" 
d="M13 505q0 93 58.5 149.5t153.5 56.5t154 -56.5t59 -149.5q0 -91 -59 -147t-154 -56t-153.5 56t-58.5 147zM31 505q0 -88 53 -141t142 -53q86 0 140 53t54 141q0 90 -54 143.5t-140 53.5q-89 0 -142 -53.5t-53 -143.5zM238 355q80 0 95 76h6v-48q-41 -34 -103 -34
q-74 0 -114 41.5t-40 109.5q0 75 45 120.5t116 45.5q57 0 89 -26v-46h-7q-6 33 -21.5 49t-56.5 16q-71 0 -108 -46.5t-37 -112.5q0 -65 36 -105t100 -40z" />
    <glyph glyph-name="ordfeminine" unicode="&#xaa;" horiz-adv-x="340" 
d="M272 509q0 51 -27.5 77.5t-68.5 26.5q-31 0 -49.5 -15t-18.5 -38h-19q0 26 23.5 42.5t61.5 16.5q50 0 82 -28t32 -79v-148q0 -27 10 -27q6 0 12 9v-8q-8 -8 -18 -8q-20 0 -20 30v44q-23 -28 -64 -50t-86 -22q-41 0 -61.5 17t-20.5 44q0 32 36.5 54t128.5 35l67 9v18z
M272 416v69l-52 -7q-95 -13 -128.5 -32.5t-33.5 -50.5q0 -56 69 -56q43 0 83.5 24t61.5 53z" />
    <glyph glyph-name="guillemotleft" unicode="&#xab;" horiz-adv-x="400" 
d="M141 319v22l244 152v-24l-222 -139l222 -140v-24zM15 319v22l244 152v-24l-222 -139l222 -140v-24z" />
    <glyph glyph-name="logicalnot" unicode="&#xac;" horiz-adv-x="543" 
d="M15 354v20h513v-131h-20v111h-493z" />
    <glyph glyph-name="registered" unicode="&#xae;" horiz-adv-x="384" 
d="M13 537q0 79 49.5 126.5t129.5 47.5t129.5 -48t49.5 -126q0 -76 -49.5 -123.5t-129.5 -47.5t-129.5 47t-49.5 124zM28 537q0 -74 45 -118.5t120 -44.5q73 0 118 44.5t45 118.5q0 76 -45 121t-118 45q-75 0 -120 -45t-45 -121zM299 421v-2h-19q-18 2 -31 17l-72 74h-43
v-91h-16v249h86q31 0 52.5 -18.5t21.5 -54.5q0 -34 -19.5 -59.5t-49.5 -25.5h-12l71 -73q16 -16 31 -16zM134 515h74q23 0 38 23.5t15 56.5q0 32 -15.5 49.5t-40.5 17.5h-71v-147z" />
    <glyph glyph-name="macron" unicode="&#xaf;" horiz-adv-x="256" 
d="M15 617v11h226v-11h-226z" />
    <glyph glyph-name="degree" unicode="&#xb0;" horiz-adv-x="349" 
d="M30 475q0 60 40 100t105 40t104.5 -40t39.5 -100q0 -59 -40 -99.5t-104 -40.5q-65 0 -105 40.5t-40 99.5zM49 475q0 -57 35 -95.5t91 -38.5t90.5 38.5t34.5 95.5q0 58 -34.5 96.5t-90.5 38.5t-91 -39t-35 -96z" />
    <glyph glyph-name="plusminus" unicode="&#xb1;" horiz-adv-x="479" 
d="M230 77v234h-215v20h215v166h20v-166h214v-20h-214v-234h-20zM20 2v19h439v-19h-439z" />
    <glyph glyph-name="twosuperior" unicode="&#xb2;" horiz-adv-x="249" 
d="M122 704q37 0 59 -24t21 -65t-22.5 -78t-64.5 -86l-79 -91h87q28 0 46.5 6.5t24.5 13t13 19.5h2l-20 -60h-159v22l77 93q76 90 78 148q2 39 -18.5 64.5t-54.5 25.5q-42 0 -63 -34l-3 3q23 43 76 43z" />
    <glyph glyph-name="threesuperior" unicode="&#xb3;" horiz-adv-x="293" 
d="M134 349q42 0 70.5 29t28.5 84q0 56 -29 85.5t-72 29.5q-22 0 -40 -7v2l132 111h-88q-29 0 -47 -6.5t-24.5 -13.5t-13.5 -20l-2 1l21 58h161v-21l-123 -103q17 5 34 5q44 0 77.5 -30t33.5 -86q0 -55 -32.5 -94t-83.5 -39q-77 0 -97 93l4 3q21 -81 90 -81z" />
    <glyph glyph-name="acute" unicode="&#xb4;" horiz-adv-x="134" 
d="M17 599h-5l27 101h40z" />
    <glyph glyph-name="paragraph" unicode="&#xb6;" horiz-adv-x="355" 
d="M281 -1h-20v339h-68q-72 0 -125 48.5t-53 129.5q0 83 55 134t123 51h147v-702h-20v682h-39v-682z" />
    <glyph glyph-name="periodcentered" unicode="&#xb7;" horiz-adv-x="191" 
d="M15 310q0 33 24.5 55t56.5 22q31 0 55.5 -22t24.5 -55t-24.5 -55t-55.5 -22t-56 22t-25 55z" />
    <glyph glyph-name="cedilla" unicode="&#xb8;" horiz-adv-x="218" 
d="M35 -179v44q29 -19 60 -19q24 0 39.5 12.5t15.5 33.5q0 24 -19 39t-45 15q-22 0 -38 -10l-3 8l65 66l17 -4l-43 -50q40 5 68.5 -15t28.5 -54t-29 -58t-66 -24q-28 0 -51 16z" />
    <glyph glyph-name="onesuperior" unicode="&#xb9;" horiz-adv-x="153" 
d="M113 339h-77v4q6 0 12 3.5t12.5 18.5t6.5 40v246q0 26 -8.5 36.5t-28.5 10.5v4h49l4 -3v-294q0 -19 3.5 -32.5t8.5 -19t9.5 -8t8.5 -2.5v-4z" />
    <glyph glyph-name="ordmasculine" unicode="&#xba;" horiz-adv-x="347" 
d="M30 521q0 82 38.5 132.5t100.5 50.5t100 -50t38 -133t-38 -133.5t-100 -50.5t-100.5 50.5t-38.5 133.5zM43 521q0 -81 34.5 -130t90.5 -49q57 0 91.5 49t34.5 130t-34.5 129.5t-91.5 48.5q-56 0 -90.5 -49t-34.5 -129z" />
    <glyph glyph-name="guillemotright" unicode="&#xbb;" horiz-adv-x="400" 
d="M259 319l-244 -153v24l222 140l-222 139v24l244 -152v-22zM385 319l-244 -153v24l222 140l-222 139v24l244 -152v-22z" />
    <glyph glyph-name="onequarter" unicode="&#xbc;" horiz-adv-x="581" 
d="M30 -57l488 786h23l-489 -786h-22zM148 339h-77v4q6 0 12 3.5t12.5 18.5t6.5 40v246q0 26 -8.5 36.5t-28.5 10.5v4h49l4 -3v-294q0 -19 3.5 -32.5t8.5 -19t9.5 -8t8.5 -2.5v-4zM482 121v-82q0 -32 28 -36v-3h-76v3q27 4 27 36v82h-177v15l191 227h7v-221h22l-5 -21h-17z
M461 337l-165 -195h165v195z" />
    <glyph glyph-name="onehalf" unicode="&#xbd;" horiz-adv-x="571" 
d="M30 -57l488 786h23l-489 -786h-22zM148 339h-77v4q6 0 12 3.5t12.5 18.5t6.5 40v246q0 26 -8.5 36.5t-28.5 10.5v4h49l4 -3v-294q0 -19 3.5 -32.5t8.5 -19t9.5 -8t8.5 -2.5v-4zM436 365q37 0 59 -24t21 -65t-22.5 -78t-64.5 -86l-79 -91h87q28 0 46.5 6.5t24.5 13
t13 19.5h2l-20 -60h-159v22l77 93q76 90 78 148q2 39 -18.5 64.5t-54.5 25.5q-42 0 -63 -34l-3 3q23 43 76 43z" />
    <glyph glyph-name="threequarters" unicode="&#xbe;" horiz-adv-x="625" 
d="M87 -57l488 786h23l-489 -786h-22zM124 349q42 0 70.5 29t28.5 84q0 56 -29 85.5t-72 29.5q-22 0 -40 -7v2l132 111h-88q-29 0 -47 -6.5t-24.5 -13.5t-13.5 -20l-2 1l21 58h161v-21l-123 -103q17 5 34 5q44 0 77.5 -30t33.5 -86q0 -55 -32.5 -94t-83.5 -39q-77 0 -97 93
l4 3q21 -81 90 -81zM542 121v-82q0 -32 28 -36v-3h-76v3q27 4 27 36v82h-177v15l191 227h7v-221h22l-5 -21h-17zM521 337l-165 -195h165v195z" />
    <glyph glyph-name="questiondown" unicode="&#xbf;" horiz-adv-x="365" 
d="M249 662q0 -20 -12 -31.5t-30 -11.5q-19 0 -31.5 11.5t-12.5 31.5q0 19 13 31.5t31 12.5t30 -12t12 -32zM56 164q0 -55 36 -98t96 -43q83 0 155 89l7 -6q-83 -106 -182 -106q-68 0 -110.5 43.5t-42.5 107.5q0 41 19.5 77t46.5 65.5t54.5 61t47 75t19.5 94.5h10
q0 -53 -16 -98.5t-39 -76.5t-46 -59.5t-39 -60.5t-16 -65z" />
    <glyph glyph-name="Agrave" unicode="&#xc0;" 
d="M312 745l-62 101h40l27 -101h-5zM559 0l-119 295h-280l-119 -295h-16l282 700h16l282 -700h-46zM166 310h268l-134 332z" />
    <glyph glyph-name="Aacute" unicode="&#xc1;" 
d="M315 745h-5l27 101h40zM559 0l-119 295h-280l-119 -295h-16l282 700h16l282 -700h-46zM166 310h268l-134 332z" />
    <glyph glyph-name="Acircumflex" unicode="&#xc2;" 
d="M235 745l71 102h12l75 -102h-10l-70 70l-68 -70h-10zM559 0l-119 295h-280l-119 -295h-16l282 700h16l282 -700h-46zM166 310h268l-134 332z" />
    <glyph glyph-name="Atilde" unicode="&#xc3;" 
d="M225 749h-5q0 59 43 59q20 0 63.5 -15t59.5 -15q24 0 28 24h5q0 -53 -40 -53q-18 0 -62 15t-61 15q-27 0 -31 -30zM559 0l-119 295h-280l-119 -295h-16l282 700h16l282 -700h-46zM166 310h268l-134 332z" />
    <glyph glyph-name="Adieresis" unicode="&#xc4;" 
d="M236 782q0 17 10 26.5t25 9.5q16 0 26.5 -9.5t10.5 -26.5q0 -16 -11 -26.5t-26 -10.5t-25 10t-10 27zM319 782q0 17 10 26.5t25 9.5q16 0 26.5 -9.5t10.5 -26.5q0 -16 -11 -26.5t-26 -10.5t-25 10t-10 27zM559 0l-119 295h-280l-119 -295h-16l282 700h16l282 -700h-46z
M166 310h268l-134 332z" />
    <glyph glyph-name="Aring" unicode="&#xc5;" 
d="M315 840q24 0 39 -15t15 -38q0 -22 -15 -37.5t-39 -15.5q-25 0 -40.5 15t-15.5 38t15 38t41 15zM315 827q-19 0 -30.5 -11.5t-11.5 -28.5t11.5 -28.5t30.5 -11.5q17 0 28.5 11.5t11.5 28.5t-11.5 28.5t-28.5 11.5zM559 0l-119 295h-280l-119 -295h-16l282 700h16
l282 -700h-46zM166 310h268l-134 332z" />
    <glyph glyph-name="AE" unicode="&#xc6;" horiz-adv-x="790" 
d="M765 0h-395v295h-210l-119 -295h-16l282 700h458v-15h-354v-233h273v-15h-273v-422h354v-15zM166 310h204v375h-53z" />
    <glyph glyph-name="Ccedilla" unicode="&#xc7;" horiz-adv-x="644" 
d="M392 5q89 0 142 40t70 130h15v-107q-97 -78 -233 -78q-29 0 -56 3l-32 -37q40 5 68.5 -15t28.5 -54t-29 -58t-66 -24q-28 0 -51 16v44q29 -19 60 -19q24 0 39.5 12.5t15.5 33.5q0 24 -19 39t-45 15q-22 0 -38 -10l-3 8l51 52q-131 21 -200.5 111t-69.5 225
q0 168 101.5 270t260.5 102q128 0 201 -58v-104h-15q-8 37 -17.5 60t-28 45t-51.5 32t-81 10q-82 0 -146 -30.5t-102 -82t-57.5 -114t-19.5 -132.5q0 -145 81 -235t226 -90z" />
    <glyph glyph-name="Egrave" unicode="&#xc8;" horiz-adv-x="475" 
d="M251 745l-62 101h40l27 -101h-5zM450 0h-395v700h395v-15h-354v-233h273v-15h-273v-422h354v-15z" />
    <glyph glyph-name="Eacute" unicode="&#xc9;" horiz-adv-x="475" 
d="M254 745h-5l27 101h40zM450 0h-395v700h395v-15h-354v-233h273v-15h-273v-422h354v-15z" />
    <glyph glyph-name="Ecircumflex" unicode="&#xca;" horiz-adv-x="475" 
d="M174 745l71 102h12l75 -102h-10l-70 70l-68 -70h-10zM450 0h-395v700h395v-15h-354v-233h273v-15h-273v-422h354v-15z" />
    <glyph glyph-name="Edieresis" unicode="&#xcb;" horiz-adv-x="475" 
d="M175 782q0 17 10 26.5t25 9.5q16 0 26.5 -9.5t10.5 -26.5q0 -16 -11 -26.5t-26 -10.5t-25 10t-10 27zM258 782q0 17 10 26.5t25 9.5q16 0 26.5 -9.5t10.5 -26.5q0 -16 -11 -26.5t-26 -10.5t-25 10t-10 27zM450 0h-395v700h395v-15h-354v-233h273v-15h-273v-422h354v-15z
" />
    <glyph glyph-name="Igrave" unicode="&#xcc;" horiz-adv-x="152" 
d="M73 745l-62 101h40l27 -101h-5zM55 0v701h42v-701h-42z" />
    <glyph glyph-name="Iacute" unicode="&#xcd;" horiz-adv-x="152" 
d="M76 745h-5l27 101h40zM55 0v701h42v-701h-42z" />
    <glyph glyph-name="Icircumflex" unicode="&#xce;" horiz-adv-x="152" 
d="M-4 745l71 102h12l75 -102h-10l-70 70l-68 -70h-10zM55 0v701h42v-701h-42z" />
    <glyph glyph-name="Idieresis" unicode="&#xcf;" horiz-adv-x="152" 
d="M-3 782q0 17 10 26.5t25 9.5q16 0 26.5 -9.5t10.5 -26.5q0 -16 -11 -26.5t-26 -10.5t-25 10t-10 27zM80 782q0 17 10 26.5t25 9.5q16 0 26.5 -9.5t10.5 -26.5q0 -16 -11 -26.5t-26 -10.5t-25 10t-10 27zM55 0v701h42v-701h-42z" />
    <glyph glyph-name="Eth" unicode="&#xd0;" horiz-adv-x="672" 
d="M311 0h-256v313h-50v20h50v367h256q65 0 120.5 -18.5t101.5 -57.5t72.5 -106t26.5 -157q0 -174 -92 -267.5t-229 -93.5zM96 313v-298h210q124 0 201.5 91t77.5 257q0 165 -77.5 243.5t-203.5 78.5h-208v-352h273v-20h-273z" />
    <glyph glyph-name="Ntilde" unicode="&#xd1;" horiz-adv-x="576" 
d="M214 749h-5q0 59 43 59q20 0 63.5 -15t59.5 -15q24 0 28 24h5q0 -53 -40 -53q-18 0 -62 15t-61 15q-27 0 -31 -30zM73 0h-18v701h16l464 -626v625h16v-700h-17l-461 622v-622z" />
    <glyph glyph-name="Ograve" unicode="&#xd2;" horiz-adv-x="795" 
d="M394 753l-62 101h40l27 -101h-5zM399 -3q-163 0 -261 95.5t-98 253.5q0 157 97.5 258.5t258.5 101.5q162 0 260.5 -102.5t98.5 -259.5t-97 -252t-259 -95zM399 13q141 0 225 90.5t84 241.5t-85 248t-227 97q-140 0 -224.5 -97t-84.5 -247q0 -151 85 -242t227 -91z" />
    <glyph glyph-name="Oacute" unicode="&#xd3;" horiz-adv-x="795" 
d="M397 753h-5l27 101h40zM399 -3q-163 0 -261 95.5t-98 253.5q0 157 97.5 258.5t258.5 101.5q162 0 260.5 -102.5t98.5 -259.5t-97 -252t-259 -95zM399 13q141 0 225 90.5t84 241.5t-85 248t-227 97q-140 0 -224.5 -97t-84.5 -247q0 -151 85 -242t227 -91z" />
    <glyph glyph-name="Ocircumflex" unicode="&#xd4;" horiz-adv-x="795" 
d="M317 753l71 102h12l75 -102h-10l-70 70l-68 -70h-10zM399 -3q-163 0 -261 95.5t-98 253.5q0 157 97.5 258.5t258.5 101.5q162 0 260.5 -102.5t98.5 -259.5t-97 -252t-259 -95zM399 13q141 0 225 90.5t84 241.5t-85 248t-227 97q-140 0 -224.5 -97t-84.5 -247
q0 -151 85 -242t227 -91z" />
    <glyph glyph-name="Otilde" unicode="&#xd5;" horiz-adv-x="795" 
d="M307 757h-5q0 59 43 59q20 0 63.5 -15t59.5 -15q24 0 28 24h5q0 -53 -40 -53q-18 0 -62 15t-61 15q-27 0 -31 -30zM399 -3q-163 0 -261 95.5t-98 253.5q0 157 97.5 258.5t258.5 101.5q162 0 260.5 -102.5t98.5 -259.5t-97 -252t-259 -95zM399 13q141 0 225 90.5t84 241.5
t-85 248t-227 97q-140 0 -224.5 -97t-84.5 -247q0 -151 85 -242t227 -91z" />
    <glyph glyph-name="Odieresis" unicode="&#xd6;" horiz-adv-x="795" 
d="M318 790q0 17 10 26.5t25 9.5q16 0 26.5 -9.5t10.5 -26.5q0 -16 -11 -26.5t-26 -10.5t-25 10t-10 27zM401 790q0 17 10 26.5t25 9.5q16 0 26.5 -9.5t10.5 -26.5q0 -16 -11 -26.5t-26 -10.5t-25 10t-10 27zM399 -3q-163 0 -261 95.5t-98 253.5q0 157 97.5 258.5
t258.5 101.5q162 0 260.5 -102.5t98.5 -259.5t-97 -252t-259 -95zM399 13q141 0 225 90.5t84 241.5t-85 248t-227 97q-140 0 -224.5 -97t-84.5 -247q0 -151 85 -242t227 -91z" />
    <glyph glyph-name="multiply" unicode="&#xd7;" horiz-adv-x="378" 
d="M337 437h26l-161 -212l161 -212h-26l-148 195l-148 -195h-26l161 212l-161 212h26l148 -195z" />
    <glyph glyph-name="Oslash" unicode="&#xd8;" horiz-adv-x="795" 
d="M399 -3q-97 0 -178 38l-57 -92h-22l62 100q-78 43 -121 121.5t-43 181.5q0 157 97.5 258.5t258.5 101.5q105 0 190 -48l44 71h23l-50 -81q73 -47 112.5 -126.5t39.5 -177.5q0 -157 -97 -252t-259 -95zM218 65l355 572q-75 53 -177 53q-140 0 -224.5 -97t-84.5 -247
q0 -93 34 -166t97 -115zM399 13q141 0 225 90.5t84 241.5q0 183 -119 280l-355 -570q72 -42 165 -42z" />
    <glyph glyph-name="Ugrave" unicode="&#xd9;" horiz-adv-x="600" 
d="M304 745l-62 101h40l27 -101h-5zM55 700h41v-462q0 -98 54 -159.5t153 -61.5q103 0 165 64t62 163v457h15v-458q0 -113 -63 -181.5t-181 -68.5q-114 0 -180 64.5t-66 174.5v468z" />
    <glyph glyph-name="Uacute" unicode="&#xda;" horiz-adv-x="600" 
d="M307 745h-5l27 101h40zM55 700h41v-462q0 -98 54 -159.5t153 -61.5q103 0 165 64t62 163v457h15v-458q0 -113 -63 -181.5t-181 -68.5q-114 0 -180 64.5t-66 174.5v468z" />
    <glyph glyph-name="Ucircumflex" unicode="&#xdb;" horiz-adv-x="600" 
d="M227 745l71 102h12l75 -102h-10l-70 70l-68 -70h-10zM55 700h41v-462q0 -98 54 -159.5t153 -61.5q103 0 165 64t62 163v457h15v-458q0 -113 -63 -181.5t-181 -68.5q-114 0 -180 64.5t-66 174.5v468z" />
    <glyph glyph-name="Udieresis" unicode="&#xdc;" horiz-adv-x="600" 
d="M228 782q0 17 10 26.5t25 9.5q16 0 26.5 -9.5t10.5 -26.5q0 -16 -11 -26.5t-26 -10.5t-25 10t-10 27zM311 782q0 17 10 26.5t25 9.5q16 0 26.5 -9.5t10.5 -26.5q0 -16 -11 -26.5t-26 -10.5t-25 10t-10 27zM55 700h41v-462q0 -98 54 -159.5t153 -61.5q103 0 165 64t62 163
v457h15v-458q0 -113 -63 -181.5t-181 -68.5q-114 0 -180 64.5t-66 174.5v468z" />
    <glyph glyph-name="Yacute" unicode="&#xdd;" horiz-adv-x="515" 
d="M259 745h-5l27 101h40zM74 700l190 -308l208 308h18l-219 -328v-372h-43v370l-203 330h49z" />
    <glyph glyph-name="Thorn" unicode="&#xde;" horiz-adv-x="557" 
d="M101 -19v637h40v-184q16 34 49 60.5t87 26.5q81 0 140 -63.5t59 -168.5t-59 -168.5t-140 -63.5q-54 0 -87 26.5t-49 60.5v-163h-40zM434 285q0 94 -48.5 156.5t-121.5 62.5q-81 0 -123 -86v-257q42 -87 125 -87q72 0 120 59t48 152z" />
    <glyph glyph-name="germandbls" unicode="&#xdf;" horiz-adv-x="604" 
d="M192 -4v11q27 -5 61 -5q103 0 165 55.5t62 130.5q0 81 -77 122t-211 35v11q64 0 111.5 17.5t73 46.5t37.5 60.5t12 66.5q0 64 -35.5 102t-97.5 38q-29 0 -50.5 -8t-34 -24t-20.5 -30.5t-11 -37t-3.5 -34.5t-0.5 -31v-615h-44v620q0 82 46.5 131t121.5 49q67 0 120 -39.5
t53 -121.5q0 -69 -42 -120t-105 -69h-1q30 0 64.5 -11t66.5 -30.5t53.5 -53t21.5 -73.5q0 -83 -80 -142t-186 -59q-33 0 -70 8z" />
    <glyph glyph-name="agrave" unicode="&#xe0;" horiz-adv-x="584" 
d="M294 591l-62 101h40l27 -101h-5zM488 536h41v-536h-41v143q-24 -65 -81 -109t-133 -44q-100 0 -167 76t-67 190q0 123 76 206.5t181 83.5q72 0 120.5 -40.5t70.5 -96.5v127zM488 216v133q0 19 -12.5 47.5t-34.5 58.5t-59.5 51t-80.5 21q-88 0 -152.5 -78t-64.5 -193
q0 -106 56.5 -175t140.5 -69q83 0 145 65t62 139z" />
    <glyph glyph-name="aacute" unicode="&#xe1;" horiz-adv-x="584" 
d="M297 591h-5l27 101h40zM488 536h41v-536h-41v143q-24 -65 -81 -109t-133 -44q-100 0 -167 76t-67 190q0 123 76 206.5t181 83.5q72 0 120.5 -40.5t70.5 -96.5v127zM488 216v133q0 19 -12.5 47.5t-34.5 58.5t-59.5 51t-80.5 21q-88 0 -152.5 -78t-64.5 -193
q0 -106 56.5 -175t140.5 -69q83 0 145 65t62 139z" />
    <glyph glyph-name="acircumflex" unicode="&#xe2;" horiz-adv-x="584" 
d="M217 591l71 102h12l75 -102h-10l-70 70l-68 -70h-10zM488 536h41v-536h-41v143q-24 -65 -81 -109t-133 -44q-100 0 -167 76t-67 190q0 123 76 206.5t181 83.5q72 0 120.5 -40.5t70.5 -96.5v127zM488 216v133q0 19 -12.5 47.5t-34.5 58.5t-59.5 51t-80.5 21
q-88 0 -152.5 -78t-64.5 -193q0 -106 56.5 -175t140.5 -69q83 0 145 65t62 139z" />
    <glyph glyph-name="atilde" unicode="&#xe3;" horiz-adv-x="584" 
d="M207 595h-5q0 59 43 59q20 0 63.5 -15t59.5 -15q24 0 28 24h5q0 -53 -40 -53q-18 0 -62 15t-61 15q-27 0 -31 -30zM488 536h41v-536h-41v143q-24 -65 -81 -109t-133 -44q-100 0 -167 76t-67 190q0 123 76 206.5t181 83.5q72 0 120.5 -40.5t70.5 -96.5v127zM488 216v133
q0 19 -12.5 47.5t-34.5 58.5t-59.5 51t-80.5 21q-88 0 -152.5 -78t-64.5 -193q0 -106 56.5 -175t140.5 -69q83 0 145 65t62 139z" />
    <glyph glyph-name="adieresis" unicode="&#xe4;" horiz-adv-x="584" 
d="M218 628q0 17 10 26.5t25 9.5q16 0 26.5 -9.5t10.5 -26.5q0 -16 -11 -26.5t-26 -10.5t-25 10t-10 27zM301 628q0 17 10 26.5t25 9.5q16 0 26.5 -9.5t10.5 -26.5q0 -16 -11 -26.5t-26 -10.5t-25 10t-10 27zM488 536h41v-536h-41v143q-24 -65 -81 -109t-133 -44
q-100 0 -167 76t-67 190q0 123 76 206.5t181 83.5q72 0 120.5 -40.5t70.5 -96.5v127zM488 216v133q0 19 -12.5 47.5t-34.5 58.5t-59.5 51t-80.5 21q-88 0 -152.5 -78t-64.5 -193q0 -106 56.5 -175t140.5 -69q83 0 145 65t62 139z" />
    <glyph glyph-name="aring" unicode="&#xe5;" horiz-adv-x="584" 
d="M297 686q24 0 39 -15t15 -38q0 -22 -15 -37.5t-39 -15.5q-25 0 -40.5 15t-15.5 38t15 38t41 15zM297 673q-19 0 -30.5 -11.5t-11.5 -28.5t11.5 -28.5t30.5 -11.5q17 0 28.5 11.5t11.5 28.5t-11.5 28.5t-28.5 11.5zM488 536h41v-536h-41v143q-24 -65 -81 -109t-133 -44
q-100 0 -167 76t-67 190q0 123 76 206.5t181 83.5q72 0 120.5 -40.5t70.5 -96.5v127zM488 216v133q0 19 -12.5 47.5t-34.5 58.5t-59.5 51t-80.5 21q-88 0 -152.5 -78t-64.5 -193q0 -106 56.5 -175t140.5 -69q83 0 145 65t62 139z" />
    <glyph glyph-name="ae" unicode="&#xe6;" horiz-adv-x="1025" 
d="M488 536h41v-122q33 58 90.5 90t130.5 32q96 0 155.5 -52.5t59.5 -137.5v-12h-420q-6 -28 -6 -60q0 -112 65 -182t160 -70q64 0 121 33t85 83l16 -5q-25 -57 -88.5 -96.5t-145.5 -39.5q-72 0 -135.5 35.5t-128.5 110.5q-24 -65 -81 -109t-133 -44q-100 0 -167 76t-67 190
q0 123 76 206.5t181 83.5q72 0 120.5 -40.5t70.5 -96.5v127zM488 216v133q0 19 -12.5 47.5t-34.5 58.5t-59.5 51t-80.5 21q-88 0 -152.5 -78t-64.5 -193q0 -106 56.5 -175t140.5 -69q83 0 145 65t62 139zM548 349h364q-2 76 -48 124t-118 48q-73 0 -126 -47t-72 -125z" />
    <glyph glyph-name="ccedilla" unicode="&#xe7;" horiz-adv-x="573" 
d="M322 521q-104 0 -170.5 -70t-66.5 -180t65.5 -179.5t159.5 -69.5q64 0 121 33t85 83l16 -5q-25 -57 -88.5 -96.5t-145.5 -39.5l-35 -41q40 5 68.5 -15t28.5 -54t-29 -58t-66 -24q-28 0 -51 16v44q29 -19 60 -19q24 0 39.5 12.5t15.5 33.5q0 24 -19 39t-45 15
q-22 0 -38 -10l-3 8l53 54q-104 8 -170.5 82t-66.5 187q0 121 76.5 195t201.5 74q122 0 195 -58v-104h-15q-29 147 -176 147z" />
    <glyph glyph-name="egrave" unicode="&#xe8;" horiz-adv-x="572" 
d="M294 581l-62 101h40l27 -101h-5zM85 274q0 -112 65 -182t160 -70q64 0 121 33t85 83l16 -5q-25 -57 -88.5 -96.5t-145.5 -39.5q-113 0 -185.5 76.5t-72.5 197.5q0 119 71 192t185 73q96 0 155 -52.5t59 -137.5v-12h-419q-6 -28 -6 -60zM94 349h364q-2 76 -48 124t-118 48
t-125.5 -47.5t-72.5 -124.5z" />
    <glyph glyph-name="eacute" unicode="&#xe9;" horiz-adv-x="572" 
d="M297 581h-5l27 101h40zM85 274q0 -112 65 -182t160 -70q64 0 121 33t85 83l16 -5q-25 -57 -88.5 -96.5t-145.5 -39.5q-113 0 -185.5 76.5t-72.5 197.5q0 119 71 192t185 73q96 0 155 -52.5t59 -137.5v-12h-419q-6 -28 -6 -60zM94 349h364q-2 76 -48 124t-118 48
t-125.5 -47.5t-72.5 -124.5z" />
    <glyph glyph-name="ecircumflex" unicode="&#xea;" horiz-adv-x="572" 
d="M217 581l71 102h12l75 -102h-10l-70 70l-68 -70h-10zM85 274q0 -112 65 -182t160 -70q64 0 121 33t85 83l16 -5q-25 -57 -88.5 -96.5t-145.5 -39.5q-113 0 -185.5 76.5t-72.5 197.5q0 119 71 192t185 73q96 0 155 -52.5t59 -137.5v-12h-419q-6 -28 -6 -60zM94 349h364
q-2 76 -48 124t-118 48t-125.5 -47.5t-72.5 -124.5z" />
    <glyph glyph-name="edieresis" unicode="&#xeb;" horiz-adv-x="572" 
d="M218 618q0 17 10 26.5t25 9.5q16 0 26.5 -9.5t10.5 -26.5q0 -16 -11 -26.5t-26 -10.5t-25 10t-10 27zM301 618q0 17 10 26.5t25 9.5q16 0 26.5 -9.5t10.5 -26.5q0 -16 -11 -26.5t-26 -10.5t-25 10t-10 27zM85 274q0 -112 65 -182t160 -70q64 0 121 33t85 83l16 -5
q-25 -57 -88.5 -96.5t-145.5 -39.5q-113 0 -185.5 76.5t-72.5 197.5q0 119 71 192t185 73q96 0 155 -52.5t59 -137.5v-12h-419q-6 -28 -6 -60zM94 349h364q-2 76 -48 124t-118 48t-125.5 -47.5t-72.5 -124.5z" />
    <glyph glyph-name="igrave" unicode="&#xec;" horiz-adv-x="178" 
d="M85 581l-62 101h40l27 -101h-5zM106 0h-42v535h42v-535z" />
    <glyph glyph-name="iacute" unicode="&#xed;" horiz-adv-x="178" 
d="M88 581h-5l27 101h40zM106 0h-42v535h42v-535z" />
    <glyph glyph-name="icircumflex" unicode="&#xee;" horiz-adv-x="178" 
d="M8 581l71 102h12l75 -102h-10l-70 70l-68 -70h-10zM106 0h-42v535h42v-535z" />
    <glyph glyph-name="idieresis" unicode="&#xef;" horiz-adv-x="178" 
d="M9 618q0 17 10 26.5t25 9.5q16 0 26.5 -9.5t10.5 -26.5q0 -16 -11 -26.5t-26 -10.5t-25 10t-10 27zM92 618q0 17 10 26.5t25 9.5q16 0 26.5 -9.5t10.5 -26.5q0 -16 -11 -26.5t-26 -10.5t-25 10t-10 27zM106 0h-42v535h42v-535z" />
    <glyph glyph-name="eth" unicode="&#xf0;" horiz-adv-x="449" 
d="M348 705v-5q-39 -12 -80.5 -37.5t-85.5 -68t-76 -110.5t-41 -150q22 49 66 80.5t105 31.5q86 0 140.5 -62t54.5 -159q0 -100 -57.5 -163t-147.5 -63q-96 0 -152.5 74.5t-56.5 202.5q0 82 24 153t60.5 118t82.5 82.5t87 53t77 22.5zM62 290q-4 -125 44 -202.5t128 -77.5
q70 0 112 58.5t42 155.5q0 95 -41.5 149.5t-114.5 54.5q-64 0 -110.5 -39.5t-59.5 -98.5z" />
    <glyph glyph-name="ntilde" unicode="&#xf1;" horiz-adv-x="526" 
d="M213 585h-5q0 59 43 59q20 0 63.5 -15t59.5 -15q24 0 28 24h5q0 -53 -40 -53q-18 0 -62 15t-61 15q-27 0 -31 -30zM97 0h-42v534h42v-169q10 26 24 50t38.5 54t62 48.5t80.5 18.5q76 0 122.5 -53.5t46.5 -139.5v-343h-43v334q0 85 -35.5 131t-98.5 46q-125 0 -197 -182
v-329z" />
    <glyph glyph-name="ograve" unicode="&#xf2;" horiz-adv-x="638" 
d="M318 578l-62 101h40l27 -101h-5zM40 263q0 115 77 192.5t203 77.5q125 0 201.5 -77.5t76.5 -192.5t-76.5 -192.5t-201.5 -77.5q-126 0 -203 77.5t-77 192.5zM82 263q0 -108 66 -181.5t172 -73.5q105 0 171 73.5t66 181.5t-66 181.5t-171 73.5q-106 0 -172 -73.5
t-66 -181.5z" />
    <glyph glyph-name="oacute" unicode="&#xf3;" horiz-adv-x="638" 
d="M321 578h-5l27 101h40zM40 263q0 115 77 192.5t203 77.5q125 0 201.5 -77.5t76.5 -192.5t-76.5 -192.5t-201.5 -77.5q-126 0 -203 77.5t-77 192.5zM82 263q0 -108 66 -181.5t172 -73.5q105 0 171 73.5t66 181.5t-66 181.5t-171 73.5q-106 0 -172 -73.5t-66 -181.5z" />
    <glyph glyph-name="ocircumflex" unicode="&#xf4;" horiz-adv-x="638" 
d="M241 578l71 102h12l75 -102h-10l-70 70l-68 -70h-10zM40 263q0 115 77 192.5t203 77.5q125 0 201.5 -77.5t76.5 -192.5t-76.5 -192.5t-201.5 -77.5q-126 0 -203 77.5t-77 192.5zM82 263q0 -108 66 -181.5t172 -73.5q105 0 171 73.5t66 181.5t-66 181.5t-171 73.5
q-106 0 -172 -73.5t-66 -181.5z" />
    <glyph glyph-name="otilde" unicode="&#xf5;" horiz-adv-x="638" 
d="M231 582h-5q0 59 43 59q20 0 63.5 -15t59.5 -15q24 0 28 24h5q0 -53 -40 -53q-18 0 -62 15t-61 15q-27 0 -31 -30zM40 263q0 115 77 192.5t203 77.5q125 0 201.5 -77.5t76.5 -192.5t-76.5 -192.5t-201.5 -77.5q-126 0 -203 77.5t-77 192.5zM82 263q0 -108 66 -181.5
t172 -73.5q105 0 171 73.5t66 181.5t-66 181.5t-171 73.5q-106 0 -172 -73.5t-66 -181.5z" />
    <glyph glyph-name="odieresis" unicode="&#xf6;" horiz-adv-x="638" 
d="M242 615q0 17 10 26.5t25 9.5q16 0 26.5 -9.5t10.5 -26.5q0 -16 -11 -26.5t-26 -10.5t-25 10t-10 27zM325 615q0 17 10 26.5t25 9.5q16 0 26.5 -9.5t10.5 -26.5q0 -16 -11 -26.5t-26 -10.5t-25 10t-10 27zM40 263q0 115 77 192.5t203 77.5q125 0 201.5 -77.5t76.5 -192.5
t-76.5 -192.5t-201.5 -77.5q-126 0 -203 77.5t-77 192.5zM82 263q0 -108 66 -181.5t172 -73.5q105 0 171 73.5t66 181.5t-66 181.5t-171 73.5q-106 0 -172 -73.5t-66 -181.5z" />
    <glyph glyph-name="divide" unicode="&#xf7;" horiz-adv-x="499" 
d="M190 406q0 25 15.5 39.5t38.5 14.5q24 0 40 -14.5t16 -39.5q0 -24 -16.5 -39.5t-39.5 -15.5t-38.5 15t-15.5 40zM15 232v20h469v-20h-469zM190 54q0 25 15.5 39.5t38.5 14.5q24 0 40 -14.5t16 -39.5q0 -24 -16.5 -39.5t-39.5 -15.5t-38.5 15t-15.5 40z" />
    <glyph glyph-name="oslash" unicode="&#xf8;" horiz-adv-x="638" 
d="M40 263q0 115 77 192.5t203 77.5q53 0 101 -16l80 129h23l-85 -136q75 -31 117 -97t42 -150q0 -115 -76.5 -192.5t-201.5 -77.5q-99 0 -172 52l-64 -102h-20l70 112q-94 77 -94 208zM82 263q0 -111 67 -183l262 421q-42 17 -91 17q-106 0 -172 -73.5t-66 -181.5zM428 493
l-266 -425q65 -60 158 -60q105 0 171 73.5t66 181.5q0 76 -34.5 137.5t-94.5 92.5z" />
    <glyph glyph-name="ugrave" unicode="&#xf9;" horiz-adv-x="466" 
d="M231 580l-62 101h40l27 -101h-5zM399 535h42v-534h-42v169q-10 -26 -24 -50t-38.5 -54t-62 -48.5t-80.5 -18.5q-76 0 -122.5 53.5t-46.5 139.5v343h43v-334q0 -85 35.5 -131t98.5 -46q125 0 197 182v329z" />
    <glyph glyph-name="uacute" unicode="&#xfa;" horiz-adv-x="466" 
d="M234 580h-5l27 101h40zM399 535h42v-534h-42v169q-10 -26 -24 -50t-38.5 -54t-62 -48.5t-80.5 -18.5q-76 0 -122.5 53.5t-46.5 139.5v343h43v-334q0 -85 35.5 -131t98.5 -46q125 0 197 182v329z" />
    <glyph glyph-name="ucircumflex" unicode="&#xfb;" horiz-adv-x="466" 
d="M154 580l71 102h12l75 -102h-10l-70 70l-68 -70h-10zM399 535h42v-534h-42v169q-10 -26 -24 -50t-38.5 -54t-62 -48.5t-80.5 -18.5q-76 0 -122.5 53.5t-46.5 139.5v343h43v-334q0 -85 35.5 -131t98.5 -46q125 0 197 182v329z" />
    <glyph glyph-name="udieresis" unicode="&#xfc;" horiz-adv-x="466" 
d="M155 617q0 17 10 26.5t25 9.5q16 0 26.5 -9.5t10.5 -26.5q0 -16 -11 -26.5t-26 -10.5t-25 10t-10 27zM238 617q0 17 10 26.5t25 9.5q16 0 26.5 -9.5t10.5 -26.5q0 -16 -11 -26.5t-26 -10.5t-25 10t-10 27zM399 535h42v-534h-42v169q-10 -26 -24 -50t-38.5 -54t-62 -48.5
t-80.5 -18.5q-76 0 -122.5 53.5t-46.5 139.5v343h43v-334q0 -85 35.5 -131t98.5 -46q125 0 197 182v329z" />
    <glyph glyph-name="yacute" unicode="&#xfd;" horiz-adv-x="502" 
d="M253 581h-5l27 101h40zM157 -250h-17l103 251l-218 535h45l196 -478l196 478h15z" />
    <glyph glyph-name="thorn" unicode="&#xfe;" horiz-adv-x="557" 
d="M101 -59v707h40v-214q16 34 49 60.5t87 26.5q81 0 140 -63.5t59 -168.5t-59 -168.5t-140 -63.5q-54 0 -87 26.5t-49 60.5v-203h-40zM434 285q0 94 -48.5 156.5t-121.5 62.5q-81 0 -123 -86v-257q42 -87 125 -87q72 0 120 59t48 152z" />
    <glyph glyph-name="ydieresis" unicode="&#xff;" horiz-adv-x="502" 
d="M174 618q0 17 10 26.5t25 9.5q16 0 26.5 -9.5t10.5 -26.5q0 -16 -11 -26.5t-26 -10.5t-25 10t-10 27zM257 618q0 17 10 26.5t25 9.5q16 0 26.5 -9.5t10.5 -26.5q0 -16 -11 -26.5t-26 -10.5t-25 10t-10 27zM157 -250h-17l103 251l-218 535h45l196 -478l196 478h15z" />
    <glyph glyph-name="Dcroat" unicode="&#x110;" horiz-adv-x="672" 
d="M311 0h-256v313h-50v20h50v367h256q65 0 120.5 -18.5t101.5 -57.5t72.5 -106t26.5 -157q0 -174 -92 -267.5t-229 -93.5zM96 313v-298h210q124 0 201.5 91t77.5 257q0 165 -77.5 243.5t-203.5 78.5h-208v-352h273v-20h-273z" />
    <glyph glyph-name="dcroat" unicode="&#x111;" horiz-adv-x="589" 
d="M491 628v72h43v-72h50v-11h-50v-617h-43v151q-39 -70 -107 -113t-143 -43q-89 0 -145 62t-56 163q0 132 93 218.5t230 86.5q69 0 128 -24v116h-133v11h133zM491 186v299q-48 22 -113 22q-129 0 -212.5 -75.5t-83.5 -197.5q0 -93 50.5 -149t132.5 -56q72 0 134 43t92 114z
" />
    <glyph glyph-name="dotlessi" unicode="&#x131;" horiz-adv-x="178" 
d="M106 0h-42v535h42v-535z" />
    <glyph glyph-name="Lslash" unicode="&#x141;" horiz-adv-x="524" 
d="M115 700v-467l305 67v-21l-305 -66v-198h354v-15h-395v204l-19 -4v20l19 4v476h41z" />
    <glyph glyph-name="lslash" unicode="&#x142;" horiz-adv-x="152" 
d="M97 0h-42v240l-162 -35v20l162 36v439h42v-430l161 35v-21l-161 -35v-249z" />
    <glyph glyph-name="OE" unicode="&#x152;" horiz-adv-x="1140" 
d="M399 -3q-163 0 -261 95.5t-98 253.5q0 157 97.5 258.5t258.5 101.5q114 0 198.5 -52t125.5 -143v189h395v-15h-354v-233h273v-15h-273v-422h354v-15h-395v179q-41 -86 -124.5 -134t-196.5 -48zM399 13q141 0 225 90.5t84 241.5t-85 248t-227 97q-140 0 -224.5 -97
t-84.5 -247q0 -151 85 -242t227 -91z" />
    <glyph glyph-name="oe" unicode="&#x153;" horiz-adv-x="1090" 
d="M40 263q0 115 77 192.5t203 77.5q91 0 157.5 -42.5t97.5 -114.5q27 75 90 117.5t148 42.5q96 0 155.5 -52.5t59.5 -137.5v-12h-419q-6 -28 -6 -60q0 -112 65 -182t160 -70q64 0 120.5 33t84.5 83l17 -5q-25 -57 -88.5 -96.5t-145.5 -39.5q-83 0 -146 42.5t-92 117.5
q-29 -75 -97 -119.5t-161 -44.5q-126 0 -203 77.5t-77 192.5zM612 349h364q-2 76 -48 124t-118 48t-125.5 -47.5t-72.5 -124.5zM82 263q0 -108 66 -181.5t172 -73.5q105 0 171 73.5t66 181.5t-66 181.5t-171 73.5q-106 0 -172 -73.5t-66 -181.5z" />
    <glyph glyph-name="Scaron" unicode="&#x160;" horiz-adv-x="521" 
d="M179 851h10l68 -80l70 80h10l-75 -102h-12zM251 5q80 0 133 45t53 115q0 55 -37.5 98t-90.5 72t-106 57.5t-90.5 70t-37.5 94.5q0 66 51 106.5t132 40.5q109 0 181 -58v-104h-15q-15 71 -50.5 109t-108.5 38q-68 0 -110 -31.5t-42 -83.5q0 -47 38 -85t92 -67t108 -60
t92 -78t38 -106q0 -83 -65 -135.5t-163 -52.5q-38 0 -70.5 7.5t-61.5 24.5t-42 26t-39 30v104h15q16 -74 63.5 -125.5t132.5 -51.5z" />
    <glyph glyph-name="scaron" unicode="&#x161;" horiz-adv-x="450" 
d="M140 683h10l68 -80l70 80h10l-75 -102h-12zM228 4q69 0 117 28.5t48 76.5q0 38 -34.5 68t-83.5 51.5t-98.5 44.5t-84 58t-34.5 80q0 54 44 89.5t117 35.5q105 0 178 -58v-104h-15q-29 147 -158 147q-58 0 -94.5 -27.5t-36.5 -69.5q0 -37 34 -67t82.5 -51.5t97.5 -44.5
t83 -58.5t34 -81.5q0 -62 -55 -97t-140 -35q-119 0 -191 58v104h15q29 -147 175 -147z" />
    <glyph glyph-name="Ydieresis" unicode="&#x178;" horiz-adv-x="515" 
d="M180 782q0 17 10 26.5t25 9.5q16 0 26.5 -9.5t10.5 -26.5q0 -16 -11 -26.5t-26 -10.5t-25 10t-10 27zM263 782q0 17 10 26.5t25 9.5q16 0 26.5 -9.5t10.5 -26.5q0 -16 -11 -26.5t-26 -10.5t-25 10t-10 27zM74 700l190 -308l208 308h18l-219 -328v-372h-43v370l-203 330
h49z" />
    <glyph glyph-name="Zcaron" unicode="&#x17d;" horiz-adv-x="451" 
d="M147 847h10l68 -80l70 80h10l-75 -102h-12zM25 0v13l351 672h-350v15h400v-13l-351 -672h350v-15h-400z" />
    <glyph glyph-name="zcaron" unicode="&#x17e;" horiz-adv-x="451" 
d="M139 681h10l68 -80l70 80h10l-75 -102h-12zM25 5l329 513h-317v16h373v-5l-330 -513h319v-16h-374v5z" />
    <glyph glyph-name="florin" unicode="&#x192;" horiz-adv-x="300" 
d="M90 515v-440q0 -101 -33.5 -157.5t-94.5 -56.5q-29 0 -31 14q-2 10 13 14q10 2 24 1q51 -4 66.5 31t15.5 153v441h-60l10 10h50v10q0 98 42 156t105 58q29 0 31 -14q2 -10 -13 -14q-10 -2 -24 -1q-54 5 -78 -33.5t-24 -150.5v-11h69l-10 -10h-58z" />
    <glyph glyph-name="circumflex" unicode="&#x2c6;" horiz-adv-x="300" 
d="M97 598l71 102h12l75 -102h-10l-70 70l-68 -70h-10z" />
    <glyph glyph-name="caron" unicode="&#x2c7;" horiz-adv-x="382" 
d="M97 700h10l68 -80l70 80h10l-75 -102h-12z" />
    <glyph glyph-name="breve" unicode="&#x2d8;" horiz-adv-x="225" 
d="M15 673h10q0 -42 26.5 -60t64.5 -18q84 0 84 75h10q0 -51 -27.5 -73t-69.5 -22t-70 22.5t-28 75.5z" />
    <glyph glyph-name="dotaccent" unicode="&#x2d9;" horiz-adv-x="128" 
d="M15 654q0 21 13 33t36 12q22 0 35.5 -12.5t13.5 -32.5q0 -45 -49 -45t-49 45z" />
    <glyph glyph-name="ring" unicode="&#x2da;" horiz-adv-x="195" 
d="M99 700q24 0 39 -15t15 -38q0 -22 -15 -37.5t-39 -15.5q-25 0 -40.5 15t-15.5 38t15 38t41 15zM99 687q-19 0 -30.5 -11.5t-11.5 -28.5t11.5 -28.5t30.5 -11.5q17 0 28.5 11.5t11.5 28.5t-11.5 28.5t-28.5 11.5z" />
    <glyph glyph-name="ogonek" unicode="&#x2db;" horiz-adv-x="257" 
d="M197 -164v-23q-79 -3 -119.5 25t-40.5 73q0 38 26.5 65.5t62.5 39.5l12 -4q-32 -9 -57 -33.5t-25 -57.5q0 -37 35 -61.5t106 -23.5z" />
    <glyph glyph-name="tilde" unicode="&#x2dc;" horiz-adv-x="280" 
d="M51 645h-5q0 59 43 59q20 0 63.5 -15t59.5 -15q24 0 28 24h5q0 -53 -40 -53q-18 0 -62 15t-61 15q-27 0 -31 -30z" />
    <glyph glyph-name="hungarumlaut" unicode="&#x2dd;" horiz-adv-x="298" 
d="M17 599h-5l47 101h20zM59 599h-5l47 101h20z" />
    <glyph glyph-name="uni03BC" unicode="&#x3bc;" horiz-adv-x="527" 
d="M472 293v119q0 35 -7 58t-20 32.5t-24 12t-27 2.5v5h106l12 -5v-551h-40v231q-12 -95 -58 -151t-111 -56q-58 0 -104.5 43.5t-65.5 112.5v-380h-40v642q0 37 -7 60.5t-20 33t-24 12.5t-27 3v5h106l12 -5v-270q0 -106 45.5 -163.5t118.5 -57.5q50 0 86.5 27.5t54.5 71.5
t26 85.5t8 82.5z" />
    <glyph glyph-name="uni1027" unicode="&#x1027;" horiz-adv-x="1473" 
d="M85 274q0 -111 65 -181.5t157 -70.5q50 0 98.5 23.5t83 57.5t65 77t47.5 76t26 60v220h43v-171q10 26 24 50t38.5 54t62 48.5t80.5 18.5q71 0 117 -47.5t51 -125.5q11 27 25 51t39 54.5t62 49t81 18.5q75 0 121.5 -53.5t46.5 -139.5v-343h-43v334q0 85 -35.5 131
t-98.5 46q-125 0 -197 -182v-329h-43v334q0 85 -35.5 131t-98.5 46q-125 0 -197 -182v-329h-43v278q-18 -43 -45.5 -86.5t-69.5 -90t-101.5 -75.5t-125.5 -29q-109 0 -177 75t-68 195q0 121 71 195t185 74q96 0 155 -52.5t59 -137.5v-12h-419q-6 -28 -6 -60zM94 349h364
q-2 76 -48 124t-118 48t-125.5 -47.5t-72.5 -124.5z" />
    <glyph glyph-name="endash" unicode="&#x2013;" horiz-adv-x="395" 
d="M15 205v20l365 80v-21z" />
    <glyph glyph-name="emdash" unicode="&#x2014;" horiz-adv-x="574" 
d="M15 212v30h544v-30h-544z" />
    <glyph glyph-name="quoteleft" unicode="&#x2018;" horiz-adv-x="110" 
d="M32 640q1 3 9 7t18 4q17 0 26.5 -11.5t9.5 -27.5q0 -18 -11 -29.5t-29 -11.5q-19 0 -29.5 13.5t-10.5 36.5q0 31 18 62.5t39 44.5q5 2 6.5 -1t-2.5 -7q-35 -25 -44 -80z" />
    <glyph glyph-name="quoteright" unicode="&#x2019;" horiz-adv-x="110" 
d="M78 631q-1 -3 -9 -7t-18 -4q-17 0 -26.5 11.5t-9.5 27.5q0 18 11 29.5t29 11.5q19 0 29.5 -13.5t10.5 -36.5q0 -31 -18 -62.5t-39 -44.5q-5 -2 -6.5 1t2.5 7q35 25 44 80z" />
    <glyph glyph-name="quotesinglbase" unicode="&#x201a;" horiz-adv-x="110" 
d="M78 10q-1 -3 -9 -7t-18 -4q-17 0 -26.5 11.5t-9.5 27.5q0 18 11 29.5t29 11.5q19 0 29.5 -13.5t10.5 -36.5q0 -31 -18 -62.5t-39 -44.5q-5 -2 -6.5 1t2.5 7q35 25 44 80z" />
    <glyph glyph-name="quotedblleft" unicode="&#x201c;" horiz-adv-x="196" 
d="M118 638q1 3 9 7t18 4q17 0 26.5 -11.5t9.5 -27.5q0 -18 -11 -29.5t-29 -11.5q-19 0 -29.5 13.5t-10.5 36.5q0 31 18 62.5t39 44.5q5 2 6.5 -1t-2.5 -7q-35 -25 -44 -80zM32 638q1 3 9 7t18 4q17 0 26.5 -11.5t9.5 -27.5q0 -18 -11 -29.5t-29 -11.5q-19 0 -29.5 13.5
t-10.5 36.5q0 31 18 62.5t39 44.5q5 2 6.5 -1t-2.5 -7q-35 -25 -44 -80z" />
    <glyph glyph-name="quotedblright" unicode="&#x201d;" horiz-adv-x="196" 
d="M78 631q-1 -3 -9 -7t-18 -4q-17 0 -26.5 11.5t-9.5 27.5q0 18 11 29.5t29 11.5q19 0 29.5 -13.5t10.5 -36.5q0 -31 -18 -62.5t-39 -44.5q-5 -2 -6.5 1t2.5 7q35 25 44 80zM164 631q-1 -3 -9 -7t-18 -4q-17 0 -26.5 11.5t-9.5 27.5q0 18 11 29.5t29 11.5q19 0 29.5 -13.5
t10.5 -36.5q0 -31 -18 -62.5t-39 -44.5q-5 -2 -6.5 1t2.5 7q35 25 44 80z" />
    <glyph glyph-name="quotedblbase" unicode="&#x201e;" horiz-adv-x="194" 
d="M78 10q-1 -3 -9 -7t-18 -4q-17 0 -26.5 11.5t-9.5 27.5q0 18 11 29.5t29 11.5q19 0 29.5 -13.5t10.5 -36.5q0 -31 -18 -62.5t-39 -44.5q-5 -2 -6.5 1t2.5 7q35 25 44 80zM162 10q-1 -3 -9 -7t-18 -4q-17 0 -26.5 11.5t-9.5 27.5q0 18 11 29.5t29 11.5q19 0 29.5 -13.5
t10.5 -36.5q0 -31 -18 -62.5t-39 -44.5q-5 -2 -6.5 1t2.5 7q35 25 44 80z" />
    <glyph glyph-name="dagger" unicode="&#x2020;" horiz-adv-x="328" 
d="M154 152v371h-139v20h139v155h20v-155h139v-20h-139v-371h-20z" />
    <glyph glyph-name="daggerdbl" unicode="&#x2021;" horiz-adv-x="328" 
d="M154 152v371h-139v20h139v54h-139v20h139v81h20v-81h139v-20h-139v-54h139v-20h-139v-371h-20z" />
    <glyph glyph-name="bullet" unicode="&#x2022;" horiz-adv-x="204" 
d="M15 291q0 41 25 64.5t62 23.5q36 0 61.5 -24t25.5 -64q0 -42 -25 -65t-62 -23t-62 23t-25 65z" />
    <glyph glyph-name="ellipsis" unicode="&#x2026;" horiz-adv-x="311" 
d="M18 44q0 20 12 31.5t30 11.5q19 0 31.5 -11.5t12.5 -31.5q0 -19 -13 -31.5t-31 -12.5t-30 12t-12 32zM124 44q0 20 12 31.5t30 11.5q19 0 31.5 -11.5t12.5 -31.5q0 -19 -13 -31.5t-31 -12.5t-30 12t-12 32zM230 44q0 20 12 31.5t30 11.5q19 0 31.5 -11.5t12.5 -31.5
q0 -19 -13 -31.5t-31 -12.5t-30 12t-12 32z" />
    <glyph glyph-name="perthousand" unicode="&#x2030;" horiz-adv-x="924" 
d="M30 -1l536 702h26l-535 -702h-27zM54 553q0 67 41.5 107t99.5 40q57 0 99.5 -40t42.5 -107t-42.5 -107t-99.5 -40q-58 0 -99.5 40t-41.5 107zM84 551q0 -61 31 -98t80 -37q48 0 80 38.5t32 100.5q0 60 -32 97.5t-80 37.5q-49 0 -80 -38.5t-31 -100.5zM309 147
q0 67 41.5 107t99.5 40q57 0 99.5 -40t42.5 -107t-42.5 -107t-99.5 -40q-58 0 -99.5 40t-41.5 107zM611 147q0 67 41.5 107t99.5 40q57 0 99.5 -40t42.5 -107t-42.5 -107t-99.5 -40q-58 0 -99.5 40t-41.5 107zM339 145q0 -61 31 -98t80 -37q48 0 80 38.5t32 100.5
q0 60 -32 97.5t-80 37.5q-49 0 -80 -38.5t-31 -100.5zM641 145q0 -61 31 -98t80 -37q48 0 80 38.5t32 100.5q0 60 -32 97.5t-80 37.5q-49 0 -80 -38.5t-31 -100.5z" />
    <glyph glyph-name="guilsinglleft" unicode="&#x2039;" horiz-adv-x="274" 
d="M15 319v22l244 152v-24l-222 -139l222 -140v-24z" />
    <glyph glyph-name="guilsinglright" unicode="&#x203a;" horiz-adv-x="274" 
d="M259 319l-244 -153v24l222 140l-222 139v24l244 -152v-22z" />
    <glyph glyph-name="fraction" unicode="&#x2044;" horiz-adv-x="591" 
d="M40 -57l488 786h23l-489 -786h-22z" />
    <glyph glyph-name="Euro" unicode="&#x20ac;" horiz-adv-x="731" 
d="M30 355v20h61q13 150 112.5 239.5t247.5 89.5q129 0 201 -58v-104h-15q-8 37 -17.5 60t-28 45t-51.5 32t-81 10q-146 0 -228.5 -90t-94.5 -224h269v-20h-270v-6l-1 -13v-6q0 -28 3 -54h268v-20h-265q19 -115 97.5 -183t203.5 -68q89 0 142 40t70 130h15v-107
q-97 -78 -233 -78q-144 0 -231.5 72t-108.5 194h-65v20h62q-3 27 -3 56v6l1 11v6h-60z" />
    <glyph glyph-name="trademark" unicode="&#x2122;" horiz-adv-x="641" 
d="M255 693h-115v-319h-19v319h-116v7h250v-7zM277 374h-7v324l-1 2h22l121 -286l120 286h19v-326h-19v307l-124 -293h-7l-124 293v-307z" />
    <glyph glyph-name="minus" unicode="&#x2212;" horiz-adv-x="608" 
d="M15 255v20h578v-20h-578z" />
    <glyph glyph-name="uniE000" unicode="&#xe000;" horiz-adv-x="858" 
d="M55 263q0 115 77 192.5t203 77.5q57 0 109 -19q52 19 111 19q125 0 201.5 -77.5t76.5 -192.5t-76.5 -192.5t-201.5 -77.5q-59 0 -111 19q-52 -19 -109 -19q-126 0 -203 77.5t-77 192.5zM97 263q0 -108 66 -181.5t172 -73.5q45 0 84 15q-68 34 -106 97.5t-38 142.5
t38 142.5t106 97.5q-39 15 -84 15q-106 0 -172 -73.5t-66 -181.5zM470 23q39 -15 85 -15q105 0 171 73.5t66 181.5t-66 181.5t-171 73.5q-46 0 -85 -15q67 -34 105 -97.5t38 -142.5t-38 -142.5t-105 -97.5zM317 263q0 -76 33.5 -137t93.5 -92q59 32 93.5 93t34.5 136
t-34.5 136t-93.5 93q-60 -31 -93.5 -92t-33.5 -137z" />
    <glyph glyph-name="uniE001" unicode="&#xe001;" horiz-adv-x="1036" 
d="M311 0h-256v700h256q87 0 155 -32q78 38 171 38q162 0 260.5 -102.5t98.5 -259.5t-97 -252t-259 -95q-100 0 -178 38q-68 -35 -151 -35zM640 13q141 0 225 90.5t84 241.5t-85 248t-227 97q-79 0 -146 -35q141 -83 141 -294q0 -218 -146 -312q69 -36 154 -36zM96 685v-670
h210q74 0 132 33q-75 44 -116 121t-41 177t42 181t119 128q-61 30 -138 30h-208zM462 63q123 90 123 300q0 201 -118 278q-66 -44 -102.5 -121t-36.5 -174q0 -94 35 -167.5t99 -115.5z" />
    <glyph glyph-name="uniE002" unicode="&#xe002;" horiz-adv-x="974" 
d="M311 0h-256v700h256q117 0 196 -55q92 59 207 59q127 0 199 -58v-124h-15q-15 88 -49 127.5t-120 39.5q-111 0 -198 -63q101 -89 101 -265q0 -196 -120 -294q84 -62 198 -62q129 0 168 82v225h41v-254q-83 -68 -212 -68q-127 0 -219 60q-77 -50 -177 -50zM96 685v-670
h210q93 0 160 51q-60 47 -93 117t-33 152q0 90 38.5 166.5t105.5 127.5q-70 56 -180 56h-208zM489 86q96 94 96 277q0 160 -77 243q-58 -51 -90.5 -125t-32.5 -152q0 -150 104 -243z" />
    <glyph glyph-name="uniE003" unicode="&#xe003;" horiz-adv-x="1170" 
d="M311 0h-256v700h256q106 0 185 -48q87 54 200 54q162 0 260.5 -102.5t98.5 -259.5q0 -122 -59.5 -208t-164.5 -120q36 -25 90.5 -68t85.5 -67t66 -40t57 -9v-16q-12 -4 -28 -4q-31 0 -72.5 20t-72.5 42.5t-86.5 66.5t-83.5 64q-45 -8 -88 -8q-119 0 -209 55
q-77 -52 -179 -52zM564 123q106 1 246 -93q93 32 145.5 115t52.5 200q0 151 -85 248t-227 97q-101 0 -177 -54q113 -88 113 -275q0 -144 -68 -238zM96 685v-670h210q94 0 161 52q-127 96 -127 279q0 91 35 166.5t99 123.5q-68 49 -170 49h-208zM472 104v1q20 8 45 13
q68 92 68 245q0 172 -89 255q-109 -97 -109 -272q0 -151 85 -242zM699 13q36 0 69 6q-126 88 -216 88q-22 -26 -39 -39q76 -55 186 -55zM482 94l2 -2l4 -3l2 -2q9 9 13 14q-14 -4 -21 -7z" />
    <glyph glyph-name="uniE004" unicode="&#xe004;" horiz-adv-x="978" 
d="M399 -3q-163 0 -261 95.5t-98 253.5q0 157 97.5 258.5t258.5 101.5q89 0 165 -35q74 33 160 33q129 0 201 -58v-104h-15q-8 37 -17.5 60t-28 45t-51.5 32t-81 10q-79 0 -144 -30q81 -46 125.5 -128.5t44.5 -186.5q0 -109 -48 -189.5t-135 -121.5q62 -28 139 -28
q89 0 142 40t70 130h15v-107q-97 -78 -233 -78q-94 0 -163 30q-66 -23 -143 -23zM399 13q64 0 118 20q-77 42 -117.5 119.5t-40.5 179.5q0 112 47 196.5t130 130.5q-64 31 -140 31q-140 0 -224.5 -97t-84.5 -247q0 -151 85 -242t227 -91zM547 46q77 38 119 116t42 183
q0 99 -39 178.5t-109 122.5q-77 -46 -116.5 -131t-39.5 -185q0 -96 37 -170t106 -114z" />
    <glyph glyph-name="uniE005" unicode="&#xe005;" horiz-adv-x="1063" 
d="M399 -3q-163 0 -261 95.5t-98 253.5q0 157 97.5 258.5t258.5 101.5q117 0 206 -57q91 55 201 55q127 0 199 -58v-124h-15q-15 88 -49 127.5t-120 39.5q-106 0 -191 -59q61 -49 94.5 -123t33.5 -163q0 -192 -139 -287q80 -52 183 -52q129 0 168 82v225h41v-254
q-83 -68 -212 -68q-118 0 -206 52q-82 -45 -191 -45zM399 13q96 0 168 44q-66 47 -102 119t-36 159q0 92 40 170t110 128q-78 57 -183 57q-140 0 -224.5 -97t-84.5 -247q0 -151 85 -242t227 -91zM592 74q116 89 116 271q0 171 -104 267q-61 -52 -95.5 -127t-34.5 -156
q0 -77 31 -144t87 -111z" />
    <glyph glyph-name="uniE006" unicode="&#xe006;" horiz-adv-x="1104" 
d="M399 -3q-163 0 -261 95.5t-98 253.5q0 157 97.5 258.5t258.5 101.5q84 0 155 -30q71 30 154 30q162 0 260.5 -102.5t98.5 -259.5t-97 -252t-259 -95q-85 0 -155 28q-70 -28 -154 -28zM399 13q66 0 127 24q-84 42 -130.5 122t-46.5 187q0 106 46.5 189.5t130.5 128.5
q-58 26 -130 26q-140 0 -224.5 -97t-84.5 -247q0 -151 85 -242t227 -91zM708 13q141 0 225 90.5t84 241.5t-85 248t-227 97q-71 0 -129 -26q85 -45 132 -129t47 -191q0 -106 -46 -185.5t-129 -121.5q61 -24 128 -24zM553 49q74 39 114.5 116t40.5 180t-41.5 183t-115.5 123
q-73 -42 -114 -122.5t-41 -182.5q0 -103 41 -180.5t116 -116.5z" />
    <glyph glyph-name="uniE007" unicode="&#xe007;" horiz-adv-x="1204" 
d="M399 -3q-163 0 -261 95.5t-98 253.5q0 157 97.5 258.5t258.5 101.5q92 0 167 -36q75 36 167 36q162 0 260.5 -102.5t98.5 -259.5q0 -122 -59.5 -208t-164.5 -120q36 -25 90.5 -68t85.5 -67t66 -40t57 -9v-16q-12 -4 -28 -4q-31 0 -72.5 20t-72.5 42.5t-86.5 66.5
t-83.5 64q-45 -8 -88 -8q-92 0 -167 33q-75 -33 -167 -33zM399 13q78 0 141 29q-79 43 -122.5 121.5t-43.5 182.5q0 102 43 183.5t122 127.5q-64 33 -143 33q-140 0 -224.5 -97t-84.5 -247q0 -151 85 -242t227 -91zM677 112q75 -19 167 -82q93 32 145.5 115t52.5 200
q0 151 -85 248t-227 97q-78 0 -142 -33q80 -47 123.5 -128.5t43.5 -184.5q0 -140 -78 -232zM506 104v1q64 25 132 15q70 89 70 225q0 98 -37.5 176t-106.5 122q-68 -44 -105.5 -122t-37.5 -175q0 -151 85 -242zM516 94q23 -22 50 -38q32 19 58 48q-18 3 -37 3q-36 0 -71 -13
zM733 13q36 0 69 6q-83 58 -141 76q-33 -33 -70 -53q63 -29 142 -29z" />
    <glyph glyph-name="uniE008" unicode="&#xe008;" horiz-adv-x="1004" 
d="M623 -5q-67 0 -121 16q-60 -21 -134 -21q-166 0 -256 94t-90 248q0 168 101.5 270t260.5 102q62 0 118 -17q56 17 118 17q162 0 260.5 -102.5t98.5 -259.5t-97 -252t-259 -95zM374 5q58 0 99 16q-98 37 -153.5 121.5t-55.5 201.5q0 116 56 205t155 129q-35 11 -83 11
q-82 0 -146 -30.5t-102 -82t-57.5 -114t-19.5 -132.5q0 -145 81 -235t226 -90zM623 11q141 0 225 90.5t84 241.5t-85 248t-227 97q-48 0 -88 -12q31 -12 53 -30v-104h-15q-19 95 -69 124q-89 -36 -139.5 -122t-50.5 -200q0 -113 49.5 -194.5t137.5 -116.5q68 40 88 142h15
v-107q-36 -28 -71 -45q44 -12 93 -12z" />
    <glyph glyph-name="uniE009" unicode="&#xe009;" horiz-adv-x="1268" 
d="M388 5q183 0 216 170h15v-107q-97 -78 -233 -78q-166 0 -256 94t-90 248q0 168 101.5 270t260.5 102q128 0 201 -58v-104h-15q-8 37 -17.5 60t-28 45t-51.5 32t-81 10q-82 0 -146 -30.5t-102 -82t-57.5 -114t-19.5 -132.5q0 -145 80.5 -235t222.5 -90zM741 0h-42v371
q-98 20 -162 20q-76 0 -149 -24v16q73 24 149 24q64 0 162 -20v314h42v-323q183 -42 283 -42q82 0 162 18v347h42v-701h-42v338q-80 -18 -162 -18q-100 0 -283 42v-362z" />
    <glyph glyph-name="uniE00A" unicode="&#xe00a;" horiz-adv-x="1320" 
d="M388 5q183 0 216 170h15v-107q-97 -78 -233 -78q-166 0 -256 94t-90 248q0 168 101.5 270t260.5 102q128 0 201 -58v-104h-15q-8 37 -17.5 60t-28 45t-51.5 32t-81 10q-82 0 -146 -30.5t-102 -82t-57.5 -114t-19.5 -132.5q0 -145 80.5 -235t222.5 -90zM388 343v16
q73 24 149 24q33 0 73 -5t64.5 -10t75.5 -16.5t70 -15.5l147 364h16l282 -700h-46l-121 300q-33 -4 -73 -4q-88 0 -196 23l-128 -319h-16l130 322q-18 4 -68 15t-74 15.5t-63 9.5t-72 5q-75 0 -150 -24zM960 642l-125 -309q103 -21 188 -21q33 0 69 3z" />
    <glyph glyph-name="uniE00B" unicode="&#xe00b;" horiz-adv-x="1221" 
d="M403 5q183 0 216 170h15v-107q-97 -78 -233 -78q-166 0 -256 94t-90 248q0 168 101.5 270t260.5 102q129 0 201 -58v-104h-15q-8 37 -17.5 60t-28 45t-51.5 32t-81 10q-82 0 -146 -30.5t-102 -82t-57.5 -114t-19.5 -132.5q0 -145 80.5 -235t222.5 -90zM941 0h-228v412
q-96 20 -160 20q-75 0 -148 -24v16q73 24 148 24q64 0 160 -20v272h237q83 0 142 -41t59 -123q0 -62 -34 -104t-86 -59q61 -4 113 -50.5t52 -123.5q0 -92 -75 -145.5t-180 -53.5zM756 685v-266q142 -31 204 -37q64 0 103.5 44.5t39.5 115.5q0 68 -41.5 105.5t-111.5 37.5
h-194zM756 403v-389h188q85 0 145 51t60 130q0 72 -51.5 121.5t-137.5 49.5q-62 6 -204 37z" />
    <glyph glyph-name="uniE00C" unicode="&#xe00c;" horiz-adv-x="1161" 
d="M85 274q0 -111 65 -181.5t157 -70.5q50 0 98.5 23.5t83 57.5t65 77t47.5 76t26 60v215h43v-151q39 70 107 113t143 43q89 0 145 -62t56 -163q0 -132 -93 -218.5t-230 -86.5q-69 0 -128 24v-280h-43v528q-18 -43 -45.5 -86.5t-69.5 -90t-101.5 -75.5t-125.5 -29
q-109 0 -177 75t-68 195q0 121 71 195t185 74q96 0 155 -52.5t59 -137.5v-12h-419q-6 -28 -6 -60zM94 349h364q-2 76 -48 124t-118 48t-125.5 -47.5t-72.5 -124.5zM670 345v-299q48 -22 113 -22q129 0 212.5 75.5t83.5 197.5q0 93 -50.5 149t-132.5 56q-72 0 -134 -43
t-92 -114z" />
    <glyph glyph-name="uniE012" unicode="&#xe012;" horiz-adv-x="227" 
d="M133 705v-535h-42v535h42zM57 55q-2 3 0 7q25 6 35.5 16t17.5 39q3 1 7 0q7 -29 17.5 -39t35.5 -16q2 -4 0 -7q-25 -6 -35.5 -16t-17.5 -39q-4 -1 -7 0q-7 29 -17.5 39t-35.5 16z" />
    <glyph glyph-name="uniE013" unicode="&#xe013;" horiz-adv-x="496" 
d="M399 701h42v-534h-42v169q-10 -26 -24 -50t-38.5 -54t-62 -48.5t-80.5 -18.5q-76 0 -122.5 53.5t-46.5 139.5v343h43v-334q0 -85 35.5 -131t98.5 -46q125 0 197 182v329zM150 55q-2 3 0 7q25 6 35.5 16t17.5 39q3 1 7 0q7 -29 17.5 -39t35.5 -16q2 -4 0 -7
q-25 -6 -35.5 -16t-17.5 -39q-4 -1 -7 0q-7 29 -17.5 39t-35.5 16z" />
    <glyph glyph-name="uniE016" unicode="&#xe016;" horiz-adv-x="584" 
d="M488 696h41v-536h-41v143q-24 -65 -81 -109t-133 -44q-100 0 -167 76t-67 190q0 123 76 206.5t181 83.5q72 0 120.5 -40.5t70.5 -96.5v127zM488 376v133q0 19 -12.5 47.5t-34.5 58.5t-59.5 51t-80.5 21q-88 0 -152.5 -78t-64.5 -193q0 -106 56.5 -175t140.5 -69
q83 0 145 65t62 139zM219 55q-2 3 0 7q25 6 35.5 16t17.5 39q4 1 7 0q7 -29 17.5 -39t35.5 -16q2 -4 0 -7q-25 -6 -35.5 -16t-17.5 -39q-3 -1 -7 0q-7 29 -17.5 39t-35.5 16z" />
    <glyph glyph-name="uniE018" unicode="&#xe018;" horiz-adv-x="911" 
d="M659 5q89 0 142 40t70 130h15v-107q-97 -78 -233 -78q-74 0 -136 20q-57 -20 -131 -20q-166 0 -256 94t-90 248q0 168 101.5 270t260.5 102q73 0 134 -22q64 22 133 22q129 0 201 -58v-104h-15q-8 37 -17.5 60t-28 45t-51.5 32t-81 10q-64 0 -115 -18q20 -9 41 -25v-104
h-15q-17 85 -58 116q-88 -42 -133 -131.5t-45 -196.5q0 -104 42.5 -181.5t122.5 -114.5q67 39 87 141h15v-107q-32 -26 -73 -46q53 -17 113 -17zM392 5q57 0 98 16q-89 38 -136 119.5t-47 191.5q0 120 53.5 208.5t147.5 130.5q-39 18 -98 18q-82 0 -146 -30.5t-102 -82
t-57.5 -114t-19.5 -132.5q0 -145 81 -235t226 -90z" />
    <glyph glyph-name="uniE01B" unicode="&#xe01b;" horiz-adv-x="572" 
d="M85 444q0 -112 65 -182t160 -70q64 0 121 33t85 83l16 -5q-25 -57 -88.5 -96.5t-145.5 -39.5q-113 0 -185.5 76.5t-72.5 197.5q0 119 71 192t185 73q96 0 155 -52.5t59 -137.5v-12h-419q-6 -28 -6 -60zM94 519h364q-2 76 -48 124t-118 48t-125.5 -47.5t-72.5 -124.5z
M225 55q-2 4 0 7q25 6 35.5 16t17.5 39q4 1 7 0q7 -29 17.5 -39t35.5 -16q2 -4 0 -7q-25 -6 -35.5 -16t-17.5 -39q-3 -1 -7 0q-7 29 -17.5 39t-35.5 16z" />
    <glyph glyph-name="uniE01C" unicode="&#xe01c;" horiz-adv-x="720" 
d="M665 69v-6q-62 -68 -155 -68q-102 0 -179 72.5t-127 189.5h-106v-257h-43v700h242q86 0 146 -52.5t60 -156.5q0 -106 -64 -170t-169 -64h-22q49 -100 124 -164t167 -64q73 0 126 40zM654 699v-511h-41v512zM98 685v-413h169q84 0 136 62t52 162q0 90 -43 139.5t-114 49.5
h-200z" />
    <glyph glyph-name="uniE01D" unicode="&#xe01d;" horiz-adv-x="719" 
d="M220 701v-476q64 14 122 11.5t95 -16t79.5 -25.5t76.5 -15.5t86 11.5v-15q-44 -15 -89 -12t-83 17t-88.5 25.5t-105.5 13.5t-134 -19v500h41zM96 700v-680q72 14 142 11t118.5 -16t106 -24.5t104 -14.5t112.5 14v-15q-59 -15 -120.5 -13t-110.5 15t-112.5 24t-127 14
t-153.5 -15v700h41z" />
    <glyph glyph-name="uniE01E" unicode="&#xe01e;" horiz-adv-x="966" 
d="M392 5q89 0 142 40t70 130h15v-107q-97 -78 -233 -78q-166 0 -256 94t-90 248q0 168 101.5 270t260.5 102q128 0 201 -58v-104h-15q-8 37 -17.5 60t-28 45t-51.5 32t-81 10q-82 0 -146 -30.5t-102 -82t-57.5 -114t-19.5 -132.5q0 -145 81 -235t226 -90zM941 0h-60
l-355 367l-59 -60v-167h-42v421h42v-232l360 371h21l-293 -303z" />
    <glyph glyph-name="uniE022" unicode="&#xe022;" horiz-adv-x="1137" 
d="M85 274q0 -111 65 -181.5t159 -70.5q62 0 120.5 33.5t98 82t65.5 95t34 79.5v388h44v-330q29 73 91 119.5t139 46.5q91 0 143.5 -63.5t52.5 -156.5q0 -58 -21.5 -113t-63.5 -101t-113 -74t-160 -28h-112v267q-16 -42 -44.5 -85.5t-70.5 -86.5t-101 -70.5t-124 -27.5
q-111 0 -179 75t-68 195q0 121 71 195t185 74q96 0 155 -52.5t59 -137.5v-12h-419q-6 -28 -6 -60zM94 349h364q-2 76 -48 124t-118 48t-125.5 -47.5t-72.5 -124.5zM671 319v-304h58q83 0 148 26.5t102 70.5t56 94t19 103q0 87 -47 144.5t-126 57.5q-78 0 -136 -56t-74 -136z
" />
    <glyph glyph-name="uniE025" unicode="&#xe025;" horiz-adv-x="1120" 
d="M388 5q183 0 216 170h15v-107q-97 -78 -233 -78q-166 0 -256 94t-90 248q0 168 101.5 270t260.5 102q128 0 201 -58v-104h-15q-8 37 -17.5 60t-28 45t-51.5 32t-81 10q-82 0 -146 -30.5t-102 -82t-57.5 -114t-19.5 -132.5q0 -145 80.5 -235t222.5 -90zM388 367v16
q69 18 141 18q70 0 171 -19v318h395v-15h-354v-311q83 -15 124 -15q65 0 114 27v-16q-49 -27 -114 -27q-42 0 -124 15v-343h354v-15h-395v366q-101 19 -171 19q-72 0 -141 -18z" />
    <glyph glyph-name="uniE026" unicode="&#xe026;" horiz-adv-x="1130" 
d="M388 5q183 0 216 170h15v-107q-97 -78 -233 -78q-166 0 -256 94t-90 248q0 168 101.5 270t260.5 102q128 0 201 -58v-104h-15q-8 37 -17.5 60t-28 45t-51.5 32t-81 10q-82 0 -146 -30.5t-102 -82t-57.5 -114t-19.5 -132.5q0 -145 80.5 -235t222.5 -90zM388 367v16
q69 18 141 18q70 0 171 -19v318h395v-15h-354v-311q83 -15 124 -15q65 0 114 27v-16q-49 -27 -114 -27q-42 0 -124 15v-358h-41v366q-101 19 -171 19q-72 0 -141 -18z" />
    <glyph glyph-name="uniE027" unicode="&#xe027;" horiz-adv-x="800" 
d="M508 205q-115 0 -184 67.5t-69 179.5q0 111 68.5 182.5t182.5 71.5q115 0 184.5 -72t69.5 -184q0 -111 -68.5 -178t-183.5 -67zM96 700v-680q75 12 137 12q92 0 223.5 -28t187.5 -28q53 0 102 14v-15q-53 -13 -106 -13q-59 0 -193.5 26.5t-228.5 26.5q-81 0 -163 -15v700
h41zM577 225q92 28 127.5 105.5t5.5 179.5q-26 85 -82.5 134.5t-128.5 49.5q-31 0 -62 -9q-91 -27 -125.5 -109t-3.5 -185q25 -83 79 -129.5t125 -46.5q34 0 65 10z" />
    <glyph glyph-name="uniE028" unicode="&#xe028;" horiz-adv-x="676" 
d="M96 700v-680q58 12 108 12q70 0 181 -28t167 -28q50 0 99 14v-15q-53 -13 -104 -13q-59 0 -173.5 26.5t-187.5 26.5q-66 0 -131 -15v700h41zM651 188h-395v512h395v-15h-354v-203h273v-15h-273v-264h354v-15z" />
    <glyph glyph-name="uniE029" unicode="&#xe029;" horiz-adv-x="724" 
d="M96 700v-680q68 12 123 12q81 0 202 -28t177 -28q52 0 101 14v-15q-53 -13 -105 -13q-58 0 -183 26.5t-209 26.5q-73 0 -147 -15v700h41zM694 182h-46l-92 229h-186l-92 -229h-16l208 518h16zM376 426h174l-87 216z" />
    <glyph glyph-name="uniE02A" unicode="&#xe02a;" horiz-adv-x="790" 
d="M296 700v-283q0 -95 53 -156t149 -61q98 0 160 62t62 160v279h15v-275q0 -107 -65 -174.5t-174 -67.5q-111 0 -176 62t-65 167v287h41zM96 700v-680q58 12 108 12q70 0 181 -28t167 -28q50 0 99 14v-15q-53 -13 -104 -13q-59 0 -173.5 26.5t-187.5 26.5q-66 0 -131 -15
v700h41z" />
    <glyph glyph-name="uniE02B" unicode="&#xe02b;" horiz-adv-x="585" 
d="M96 700v-680q33 10 69 10q48 0 149.5 -27.5t156.5 -27.5q48 0 89 15v-15q-42 -13 -94 -13q-57 0 -163.5 25.5t-159.5 25.5q-49 0 -88 -13v700h41zM361 188h-41v512l41 -1v-511z" />
    <glyph glyph-name="uniE02C" unicode="&#xe02c;" horiz-adv-x="1140" 
d="M848 205q-115 0 -184 67.5t-69 179.5q0 111 68.5 182.5t182.5 71.5q115 0 184.5 -72t69.5 -184q0 -111 -68.5 -178t-183.5 -67zM1100 102v-6q-103 -101 -303 -101q-169 0 -323 74t-256 188h-120v-257h-43v700h242q86 0 146 -53t60 -157q0 -102 -59 -167.5t-162 -65.5h-8
q102 -101 246.5 -165.5t303.5 -64.5q173 0 276 75zM917 225q92 28 127.5 105.5t5.5 179.5q-31 103 -106 152.5t-167 22.5q-91 -27 -125.5 -109t-3.5 -185q31 -102 104 -147.5t165 -18.5zM98 685v-413h183q81 0 127.5 63.5t46.5 159.5q0 91 -42.5 140.5t-114.5 49.5h-200z
" />
    <glyph glyph-name="uniE02D" unicode="&#xe02d;" horiz-adv-x="1027" 
d="M1002 100v-6q-101 -99 -298 -99q-91 0 -166 20t-133.5 59t-100 81t-87.5 102h-119v-257h-43v700h242q86 0 146 -53t60 -157q0 -102 -59 -167.5t-162 -65.5h-16q47 -55 85 -90t94 -70.5t126.5 -52.5t158.5 -17q172 0 272 73zM1002 203v-15h-395v512h395v-15h-354v-203h267
v-15h-267v-264h354zM98 685v-413h183q81 0 127.5 63.5t46.5 159.5q0 91 -42.5 140.5t-114.5 49.5h-200z" />
    <glyph glyph-name="uniE02E" unicode="&#xe02e;" horiz-adv-x="1030" 
d="M1005 100v-6q-101 -99 -298 -99q-92 0 -167.5 20t-134 59t-100.5 81t-88 102h-119v-257h-43v700h242q86 0 146 -53t60 -157q0 -102 -59 -167.5t-162 -65.5h-16q47 -55 85.5 -90t94.5 -70.5t127 -52.5t159 -17q173 0 273 73zM786 700l208 -518h-46l-92 229h-186l-92 -229
h-16l208 518h16zM98 685v-413h183q81 0 127.5 63.5t46.5 159.5q0 91 -42.5 140.5t-114.5 49.5h-200zM763 642l-87 -216h174z" />
    <glyph glyph-name="uniE02F" unicode="&#xe02f;" horiz-adv-x="1144" 
d="M609 700h41v-283q0 -95 53 -156t149 -61q98 0 160 62t62 160v279h15v-275q0 -107 -65 -174.5t-174 -67.5q-111 0 -176 62t-65 167v287zM1089 117v-6q-118 -116 -345 -116q-96 0 -175.5 20t-143 59t-110 81t-97.5 102h-120v-257h-43v700h242q86 0 146 -53t60 -157
q0 -102 -59 -167.5t-162 -65.5h-9q52 -54 94.5 -89.5t102.5 -71t135 -52.5t165 -17q196 0 319 90zM98 685v-413h183q81 0 127.5 63.5t46.5 159.5q0 91 -42.5 140.5t-114.5 49.5h-200z" />
    <glyph glyph-name="uniE030" unicode="&#xe030;" horiz-adv-x="1099" 
d="M85 274q0 -111 65 -181.5t157 -70.5q50 0 98.5 23.5t83 57.5t65 77t47.5 76t26 60v384h43v-335q10 26 24 50t38.5 54t62 48.5t80.5 18.5q76 0 122.5 -53.5t46.5 -139.5v-343h-43v334q0 85 -35.5 131t-98.5 46q-125 0 -197 -182v-329h-43v278q-18 -43 -45.5 -86.5
t-69.5 -90t-101.5 -75.5t-125.5 -29q-109 0 -177 75t-68 195q0 121 71 195t185 74q96 0 155 -52.5t59 -137.5v-12h-419q-6 -28 -6 -60zM94 349h364q-2 76 -48 124t-118 48t-125.5 -47.5t-72.5 -124.5z" />
    <glyph glyph-name="uniE031" unicode="&#xe031;" horiz-adv-x="913" 
d="M85 274q0 -111 65 -181.5t157 -70.5q50 0 98.5 23.5t83 57.5t65 77t47.5 76t26 60v215h43v-119q22 52 74 88t107 36q37 0 37 -19q0 -23 -47 -23q-70 0 -120.5 -41t-50.5 -96v-357h-43v278q-18 -43 -45.5 -86.5t-69.5 -90t-101.5 -75.5t-125.5 -29q-109 0 -177 75t-68 195
q0 121 71 195t185 74q96 0 155 -52.5t59 -137.5v-12h-419q-6 -28 -6 -60zM94 349h364q-2 76 -48 124t-118 48t-125.5 -47.5t-72.5 -124.5z" />
    <glyph glyph-name="uniE032" unicode="&#xe032;" horiz-adv-x="1099" 
d="M85 274q0 -111 65 -181.5t157 -70.5q50 0 98.5 23.5t83 57.5t65 77t47.5 76t26 60v220h43v-171q10 26 24 50t38.5 54t62 48.5t80.5 18.5q76 0 122.5 -53.5t46.5 -139.5v-343h-43v334q0 85 -35.5 131t-98.5 46q-125 0 -197 -182v-329h-43v278q-18 -43 -45.5 -86.5
t-69.5 -90t-101.5 -75.5t-125.5 -29q-109 0 -177 75t-68 195q0 121 71 195t185 74q96 0 155 -52.5t59 -137.5v-12h-419q-6 -28 -6 -60zM94 349h364q-2 76 -48 124t-118 48t-125.5 -47.5t-72.5 -124.5z" />
    </font>
</defs>
</svg>
